<?xml version="1.0" encoding="utf-8"?>
<!-- Generator: Adobe Illustrator 19.2.0, SVG Export Plug-In . SVG Version: 6.00 Build 0)  -->
<svg version="1.1" id="Layer_1" xmlns="http://www.w3.org/2000/svg" xmlns:xlink="http://www.w3.org/1999/xlink" x="0px" y="0px"
	 viewBox="0 0 256.8 128.9" style="enable-background:new 0 0 256.8 128.9;" xml:space="preserve">
<style type="text/css">
	.st0{fill:#AFAED3;}
	.st1{fill:#8B7DBA;}
	.st2{fill:#6C55A1;}
	.st3{fill:#4F4287;}
</style>
<g>
	<polygon class="st0" points="82.1,47.7 83.9,48.9 89.1,92.8 73.2,51.2 	"/>
	<polygon class="st1" points="83.9,48.9 112.8,125.7 102.9,125.7 75,52.4 	"/>
	<polygon class="st0" points="4.5,61 52.2,88 75,106.3 29.8,87.3 0,69.6 	"/>
	<polygon class="st1" points="6.9,62.2 52.2,88 82.5,112.3 99.2,125.7 2.3,70.8 	"/>
	<polygon class="st0" points="46.1,91.1 28.9,120.2 138.7,0 135.8,0 	"/>
	<polygon class="st1" points="11.9,128.9 26.7,128.9 145.9,7.7 138.7,0 	"/>
	<path class="st2" d="M132.5,9.7h111.8c0,0-12.8,82.4-78.5,81.5c-65.7-1-79.2-14.8-79.2-14.8s22.9,1.6,39.2-61.4
		C126.6,11.8,129.3,9.7,132.5,9.7z"/>
	<polygon class="st0" points="119.8,128.9 134.6,128.9 249.6,0 246.6,0 	"/>
	<polygon class="st1" points="122.8,128.9 137.5,128.9 256.8,7.7 249.6,0 	"/>
	<polygon class="st2" points="68.7,86.1 26.7,128.9 11.9,128.9 54,86.1 	"/>
	<polygon class="st2" points="97.9,86.1 113.4,127.3 103.5,127.3 87.8,86.1 	"/>
	<polygon class="st2" points="38.7,80.3 96.9,113.4 101.8,127.3 99.2,125.7 19.1,80.3 	"/>
	<path class="st3" d="M107.4,67.6H10.1c-2.4,0-3.6,2.9-1.8,4.6c7.6,7.1,24,20.2,42.3,20.6c25.2,0.6,107.8,0,107.8,0l-48.9-24.7
		C108.8,67.8,108.1,67.6,107.4,67.6z"/>
	<polygon class="st0" points="114.9,61 215.8,118.4 215.8,124.5 145.9,86.1 110.4,69.6 	"/>
	<polygon class="st1" points="117.3,62.2 218.1,119.6 218.1,125.7 209.6,125.7 112.8,70.8 	"/>
	<polygon class="st2" points="172.3,93.5 165.4,100.6 174.4,105.7 181.2,98.5 	"/>
	<polygon class="st2" points="188.4,62.2 192.4,73.1 186.5,79.1 182.7,68 	"/>
	<polygon class="st0" points="192.6,47.7 194.3,48.9 218.1,125.7 212,125.7 183.7,51.2 	"/>
	<polygon class="st1" points="194.3,48.9 223.2,125.7 213.3,125.7 185.4,52.4 	"/>
</g>
</svg>
