<?xml version="1.0" encoding="utf-8"?>
<!-- Generator: Adobe Illustrator 19.2.0, SVG Export Plug-In . SVG Version: 6.00 Build 0)  -->
<svg version="1.1" id="Layer_1" xmlns="http://www.w3.org/2000/svg" xmlns:xlink="http://www.w3.org/1999/xlink" x="0px" y="0px"
	 viewBox="0 0 186 200.7" style="enable-background:new 0 0 186 200.7;" xml:space="preserve">
<style type="text/css">
	.st0{opacity:0.65;fill:#E5740E;}
	.st1{fill:#FFD297;}
	.st2{opacity:0.55;fill:#FF8813;}
	.st3{opacity:0.75;fill:#E5740E;}
	.st4{opacity:0.4;fill:#E5740E;}
	.st5{opacity:0.15;fill:#FF8813;}
	.st6{opacity:0.15;}
	.st7{fill:#FF8813;}
</style>
<g>
	<circle class="st0" cx="91" cy="102.6" r="91"/>
	<circle class="st1" cx="95" cy="109.7" r="91"/>
	<circle class="st2" cx="95.4" cy="109.7" r="86.7"/>
	<circle class="st3" cx="95.4" cy="109.7" r="64"/>
	<path class="st4" d="M11.8,37.1C11.8,19.7,20.9,0,32.2,0s20.4,19.7,20.4,37.1c0,12.6-4.8,20.5-11.7,24c-1.9,1-3.1,3.1-3,5.4l2,99.9
		H24.4l2-99.9c0.1-2.3-1.1-4.4-3-5.4C16.5,57.6,11.8,49.7,11.8,37.1z"/>
	<path class="st1" d="M17.1,37.8c0-16.2,9.1-34.5,20.4-34.5s20.4,18.3,20.4,34.5c0,11.7-4.8,19.1-11.7,22.3c-1.9,0.9-3.1,2.9-3,5
		l2,95.3H29.7l2-95.3c0.1-2.1-1.1-4.1-3-5C21.9,56.9,17.1,49.5,17.1,37.8z"/>
	<path class="st5" d="M47.8,19.4c0-2,0.3-5.9-0.1-7.8c4.5,5.9,7.9,17.3,7.9,25.8c0,10.1-4.6,18-10.5,20.8c-1.7,0.8-4.1,2.3-4,5
		l2.1,97.7L32,160.1l1.5-97c0.1-2.5-1.5-3.7-3.2-4.5c-3.8-1.7-8.3-7-10.1-11.7C35.3,45.6,47.8,33.7,47.8,19.4z"/>
	<path class="st4" d="M134.8,46.2l2-42.3c0-1.3,1.1-2.3,2.4-2.3c1.2,0.1,2.1,1.2,2.1,2.4c0,5.2,0,25.8,0,31.4c0,1.4,1.1,2.7,2.5,2.8
		c1.5,0.1,2.8-1.1,2.8-2.6V4.1c0-1.2,0.9-2.3,2.1-2.4c1.3-0.1,2.4,1,2.4,2.3v31.6c0,1.3,0.9,2.4,2.1,2.7c1.7,0.3,3.2-0.9,3.2-2.6
		V4.1c0-1.1,0.8-2.2,1.9-2.4c1.4-0.2,2.7,0.8,2.7,2.2v31.7c0,1.5,1.2,2.6,2.6,2.6l0,0c1.5,0,2.6-1.2,2.6-2.6V4.1
		c0-1.2,0.9-2.3,2.1-2.4c1.3-0.1,2.4,1,2.4,2.3l2,42.3c0,5.7-3.9,10.8-9,13.6c-2.6,1.4-4.2,4.1-4.1,7l1.8,92.1H146l1.8-92.1
		c0.1-2.9-1.5-5.6-4.1-7C138.6,57,134.8,51.9,134.8,46.2z"/>
	<path class="st1" d="M139.3,47.7l2-42.3c0-1.3,1.1-2.3,2.4-2.3c1.2,0.1,2.1,1.2,2.1,2.4c0,5.2,0,25.8,0,31.4c0,1.4,1.1,2.7,2.5,2.8
		c1.5,0.1,2.8-1.1,2.8-2.6V5.6c0-1.2,0.9-2.3,2.1-2.4c1.3-0.1,2.4,1,2.4,2.3v31.6c0,1.3,0.9,2.4,2.1,2.7c1.7,0.3,3.2-0.9,3.2-2.6
		V5.6c0-1.1,0.8-2.2,1.9-2.4c1.4-0.2,2.7,0.8,2.7,2.2v31.7c0,1.5,1.2,2.6,2.6,2.6l0,0c1.5,0,2.6-1.2,2.6-2.6V5.6
		c0-1.2,0.9-2.3,2.1-2.4c1.3-0.1,2.4,1,2.4,2.3l2,42.3c0,5.7-3.9,10.8-9,13.6c-2.6,1.4-4.2,4.1-4.1,7l1.8,92.1h-15.5l1.8-92.1
		c0.1-2.9-1.5-5.6-4.1-7C143.2,58.5,139.3,53.5,139.3,47.7z"/>
	<g class="st6">
		<path class="st7" d="M141.4,50c9-0.9,17.3-4.3,23.5-9.5c0.8,0.8,1.9,1.3,3.2,1.3c2.5,0,4.6-2.1,4.6-4.6v-6.5
			c0.7-1.4,1.3-2.9,1.7-4.4l1,21.5c0,4.5-3.1,9.1-8,11.8c-3.3,1.8-5.2,5.1-5.1,8.8l1.8,90.1h-11.6l1.8-90.1c0.1-3.6-1.8-6.9-5.1-8.7
			C145,57.4,142.2,53.8,141.4,50z"/>
	</g>
</g>
</svg>
