<?xml version="1.0" encoding="utf-8"?>
<!-- Generator: Adobe Illustrator 19.2.0, SVG Export Plug-In . SVG Version: 6.00 Build 0)  -->
<svg version="1.1" id="Layer_1" xmlns="http://www.w3.org/2000/svg" xmlns:xlink="http://www.w3.org/1999/xlink" x="0px" y="0px"
	 viewBox="0 0 1920 1080" style="enable-background:new 0 0 1920 1080;" xml:space="preserve">
<style type="text/css">
	.st0{fill:#0A1975;}
	.st1{opacity:0.5;fill:#7990DB;enable-background:new    ;}
	.st2{opacity:0.5;fill:#FFFFFF;enable-background:new    ;}
	.st3{fill:#FFFFFF;}
	.st4{fill:#7990DB;}
	.st5{opacity:0.6;fill:url(#SVGID_1_);enable-background:new    ;}
	.st6{fill:url(#SVGID_2_);}
	.st7{fill:url(#SVGID_3_);}
	.st8{fill:url(#SVGID_4_);}
	.st9{fill:url(#SVGID_5_);}
	.st10{fill:url(#SVGID_6_);}
	.st11{fill:url(#SVGID_7_);}
	.st12{fill:none;stroke:#7990DB;stroke-width:1.5;stroke-miterlimit:10;}
	.st13{fill:url(#SVGID_8_);}
	.st14{fill:url(#SVGID_9_);}
	.st15{fill:url(#SVGID_10_);}
	.st16{fill:url(#SVGID_11_);}
	.st17{fill:url(#SVGID_12_);}
	.st18{fill:url(#SVGID_13_);}
	.st19{fill:url(#SVGID_14_);}
	.st20{fill:url(#SVGID_15_);}
	.st21{fill:url(#SVGID_16_);}
	.st22{fill:url(#SVGID_17_);}
	.st23{fill:url(#SVGID_18_);}
	.st24{fill:url(#SVGID_19_);}
	.st25{fill:url(#SVGID_20_);}
	.st26{fill:url(#SVGID_21_);}
	.st27{enable-background:new    ;}
	.st28{fill:url(#SVGID_22_);}
	.st29{fill:url(#SVGID_23_);}
	.st30{fill:url(#SVGID_24_);}
</style>
<rect x="-24" y="-18" class="st0" width="1954" height="1118"/>
<path class="st1" d="M650.9,227.8c-1.5,0-2.9-1.3-2.9-2.9c0,1.5-1.3,2.9-2.9,2.9c1.5,0,2.9,1.3,2.9,2.9
	C648,228.9,649.3,227.8,650.9,227.8z"/>
<path class="st2" d="M1077.4,402c-1.5,0-2.9-1.3-2.9-2.9c0,1.5-1.3,2.9-2.9,2.9c1.5,0,2.9,1.3,2.9,2.9
	C1074.5,403.4,1075.8,402,1077.4,402z"/>
<path class="st3" d="M960.3,533.8l29.2-4.2c0,0,8.4-1.3,13.6,3.9c5.5,5.8,21.7,22.4,21.7,22.4l15.9-9.4c0,0,2.3-1.6,4.9,1.3
	l-1.6,3.2l-24,16.9l-32.7-17.5L957.2,565l-24.3-11.3l1-11.3L960.3,533.8z"/>
<path class="st3" d="M939.6,490.8l6.4-3.3l17.3,0.7l11-23c0,0-1.1-7.7,0-10c0.5-0.7,1.2-2,3.2-1.8c1.6,0,4.5,0.4,6.8,0.4
	c2.6,0,6,2.7,4.7,6.3c-0.3,1-0.6,4.5-3.2,8.1C984.4,470.1,974,498,974,498s1.9,3.6-3.6,4.5c-5.5,1-26.3,3.2-26.3,3.2L939.6,490.8z"
	/>
<path class="st4" d="M899,487.4l-7.5,3.2c0,0-7.8,2.6-4.9,9.7c3.6,8.4,20.1,52.8,20.1,52.8l9.7,5.5l9.4-3.2l-5.5-38.9L899,487.4z"/>
<path class="st4" d="M1044.6,550l-1-0.6c-1.9-1-5.2,1.3-6.8,2.6l-13,9.4l-21.7-22.7c-3.9-3.9-7.8-4.5-13-3.2l-46.4,12.3l8.1,14.6
	l6.5,2.9l32.4-10.4l34.4,25C1023.8,579.8,1044.6,550.7,1044.6,550z"/>
<path class="st4" d="M978.5,453.4c-1,0-1.6,0-1.9,0l0.6,12L966.5,492c0,0-0.6,2.3-1.3,2.3c-8.4,0-11.3,0.3-12-1
	c-2.9-4.9-6.8-5.8-6.8-5.8l-8.2-0.7l6.3,18.5c0,0,21.4,2.9,26.9,1.9s6.5-5.8,6.5-5.8s9.7-30.1,11-32.4c2.3-3.6,4.5-8.8,4.9-10
	c1.3-3.6-6.8-11.3-9.4-11.3C982,447.9,980.1,453.4,978.5,453.4z"/>
<path class="st3" d="M918.8,546.4l11,11.7c0,0-4.9,0.3,2.6,3.9c7.5,3.6,29.5,15.6,29.5,15.6l10.7,32.1c0,0,18.8,3.6,22.4,3.6
	c4.1-0.8,12-4.5,12-4.5s-1.5-3.8-2.3-4.9c-2-2.7-18.4-3.3-18.4-3.3l-6.6-30.4c0,0-1.3-7.1-5.8-10.4c-8.1-5.5-36.3-24.3-36.3-24.3
	L918.8,546.4z"/>
<path class="st4" d="M988.8,607.4l-9.7,0.3L966.8,574c-0.6-2.3-1.6-3.6-3.6-4.5l-30.5-13c0,0-8.3-2.3-12.2-11.1
	c-0.3-0.6-2.9-1.2-2.9-1.2l6.3,14.9c0,0,2.6,6.8,7.8,9.1c6.5,3.2,22,10.7,25,12c0.3,0,0.6,0.3,0.6,0.6l12,33.4c0,0,1.6,5.5,4.9,4.9
	c3.6-0.6,21.1-5.8,21.1-5.8S993,607.4,988.8,607.4z"/>
<path class="st3" d="M894.3,514.2c0,0-1.1,1.3-4.4,2.6c-2.3,1.2-4.2,3.4-8,5.1c-1.5,0.6-3.1,1.3-4.8,2c-6.2,2.6-13.6,5.2-22.4,7.8
	c-8.8,2.6-18.8,5.2-30.1,6.2c-41.8,4.9-68.6-6.6-40.2-56.4c2.7-4.7,3.9-13.5-4.2-18.2c-3-1.7-6.5-3.2-10-3.6
	c-3.6-0.3-7.1,0.3-10.7,1.3c-7.1,1.9-13.9,5.2-21.1,7.1c-7.1,1.9-14.6,2.9-22,3.6c-7.5,0.3-14.9,0.3-22.4-0.6
	c-7.1-1-14.6-2.9-20.7-7.1c-2.9-2.3-5.5-5.2-6.5-8.8c-1.3-3.2-1.6-7.1-0.3-10.7s4.2-6.2,7.8-6.8c3.6-0.6,7.1,0.3,9.7,2.6
	s3.9,5.5,4.9,8.8c0.6,3.2,0.6,6.5,0,9.7s-1.9,6.2-3.9,8.8c-1.9,2.6-4.2,4.5-6.8,6.5c-5.2,3.6-10.7,5.5-16.2,6.5
	c-11,2.3-21.4,2.3-30.5,1.6s-16.9-2.3-23.3-3.9c-6.2-1.6-11-3.6-14.3-5.2c-1.6-0.6-2.6-1.3-3.6-1.9c-0.6-0.3-1.3-0.6-1.3-0.6
	s0.3,0.3,1.3,0.6c0.6,0.3,1.9,1,3.6,1.9c3.2,1.6,8.1,3.2,14.3,4.9c6.2,1.6,14.3,2.9,23.3,3.6c9.1,0.6,19.5,0.6,30.1-1.9
	c5.5-1.3,11-3.2,15.9-6.5c2.6-1.6,4.5-3.9,6.5-6.2c1.9-2.6,3.2-5.5,3.9-8.4c0.6-3.2,0.6-6.5,0-9.4c-0.6-3.2-2.3-6.2-4.5-8.4
	c-2.6-1.9-5.8-3.2-9.1-2.6c-3.2,0.6-6.2,2.9-7.1,6.2c-1.3,3.2-1,6.8,0.3,10c1,3.2,3.2,6.2,6.2,8.1c5.8,4.2,13,5.8,20.1,6.8
	s14.6,1,22,0.3c7.5-0.6,14.9-1.6,21.7-3.6c7.1-1.9,13.9-5.2,21.1-7.1c3.6-1,7.5-1.6,11.3-1.3c3.9,0.3,7.5,1.6,10.7,3.6
	c11.2,6.9,7.4,16.9,5.4,20.8c-18.4,37.7-8.6,45.4,3.2,50.5c2.9,1.3,15,3.8,35.2,2c11-1.3,21.1-3.9,29.5-6.5c8.8-2.6,15.9-5.5,22-7.8
	c1.5-0.6,3.8-1.9,5.1-2.4c4.1-1.8,6.6-1.2,8.8-2.4c3.2-1.6,3.5-0.7,3.5-0.7L894.3,514.2z"/>
<path class="st3" d="M928.5,460.5c1.3,1.6,1.3,3.9-0.3,5.5c-1.6,1.3-3.9,1.3-5.2-0.3c-1.3-1.6-1.3-3.9,0.3-5.5
	C925,458.6,927.2,458.9,928.5,460.5z"/>
<path class="st3" d="M924.3,470.6c0.6,1,0.6,1.9,0,2.9c-0.6,0.6-1.9,0.6-2.6-0.3c-0.6-1-0.6-1.9,0-2.9
	C922.4,469.6,923.7,469.6,924.3,470.6z"/>
<path class="st2" d="M659,339.6c-1,0-1.7-0.8-1.7-1.7c0,1-0.8,1.7-1.7,1.7c1,0,1.7,0.8,1.7,1.7C657.2,340.4,658,339.6,659,339.6z"/>
<circle class="st2" cx="281.6" cy="176.2" r="0.6"/>
<circle class="st1" cx="377.7" cy="296.3" r="1"/>
<circle class="st1" cx="798.7" cy="706.2" r="0.6"/>
<circle class="st1" cx="408.3" cy="677.3" r="1"/>
<circle class="st1" cx="716.1" cy="158.8" r="0.6"/>
<circle class="st2" cx="959.9" cy="767.5" r="1"/>
<circle class="st2" cx="1187.1" cy="507.9" r="0.6"/>
<circle class="st1" cx="1177.5" cy="630.2" r="1"/>
<circle class="st1" cx="1404.1" cy="473.3" r="0.6"/>
<circle class="st2" cx="1371.2" cy="305.9" r="1"/>
<circle class="st2" cx="1456.1" cy="648.5" r="0.6"/>
<circle class="st2" cx="1073.3" cy="205" r="1"/>
<path class="st1" d="M613.1,737.6c-1.5,0-2.9-1.3-2.9-2.9c0,1.5-1.3,2.9-2.9,2.9c1.5,0,2.9,1.3,2.9,2.9
	C610.4,739,611.6,737.6,613.1,737.6z"/>
<path class="st1" d="M1654,235.5c-1.5,0-2.9-1.3-2.9-2.9c0,1.5-1.3,2.9-2.9,2.9c1.5,0,2.9,1.3,2.9,2.9
	C1651.1,236.8,1652.5,235.5,1654,235.5z"/>
<path class="st2" d="M1404.9,1004.9c-1.5,0-2.9-1.3-2.9-2.9c0,1.5-1.3,2.9-2.9,2.9c1.5,0,2.9,1.3,2.9,2.9
	C1402.2,1006.2,1403.3,1004.9,1404.9,1004.9z"/>
<path class="st2" d="M465.1,193.5c-1.5,0-2.9-1.3-2.9-2.9c0,1.5-1.3,2.9-2.9,2.9c1.5,0,2.9,1.3,2.9,2.9
	C462.2,194.6,463.5,193.5,465.1,193.5z"/>
<path class="st1" d="M277,875.1c-1.5,0-2.9-1.3-2.9-2.9c0,1.5-1.3,2.9-2.9,2.9c1.5,0,2.9,1.3,2.9,2.9
	C274.1,876.2,275.2,875.1,277,875.1z"/>
<circle class="st3" cx="893.9" cy="954" r="0.6"/>
<circle class="st1" cx="501.1" cy="461.5" r="1"/>
<circle class="st2" cx="511.9" cy="985.4" r="0.6"/>
<circle class="st2" cx="1765.7" cy="850.6" r="1"/>
<circle class="st4" cx="1206.9" cy="855.3" r="0.6"/>
<circle class="st1" cx="226.3" cy="399.1" r="1"/>
<circle class="st1" cx="890.6" cy="306.3" r="0.6"/>
<circle class="st2" cx="1322.3" cy="88.2" r="1"/>
<circle class="st2" cx="1377.7" cy="694.7" r="0.6"/>
<circle class="st2" cx="222.5" cy="567.2" r="1"/>
<circle class="st2" cx="1639.6" cy="397" r="0.6"/>
<circle class="st3" cx="1657.9" cy="497.7" r="1"/>
<circle class="st2" cx="1335.9" cy="474.8" r="0.6"/>
<circle class="st2" cx="841.1" cy="106.1" r="1"/>
<circle class="st2" cx="150.7" cy="756.3" r="0.6"/>
<circle class="st2" cx="583.3" cy="554.1" r="1"/>
<circle class="st2" cx="129.5" cy="240.3" r="0.6"/>
<circle class="st2" cx="339.9" cy="1005.6" r="1"/>
<circle class="st4" cx="370.7" cy="56.8" r="0.6"/>
<circle class="st1" cx="1768.6" cy="89.1" r="1"/>
<circle class="st2" cx="443.9" cy="824.3" r="0.6"/>
<circle class="st2" cx="1115.9" cy="1021" r="1"/>
<linearGradient id="SVGID_1_" gradientUnits="userSpaceOnUse" x1="954.4" y1="622.4328" x2="954.4" y2="631.2635" gradientTransform="matrix(1 0 0 0.8693 0 377.1224)">
	<stop  offset="0" style="stop-color:#0A1975;stop-opacity:0"/>
	<stop  offset="0.6075" style="stop-color:#0A1975"/>
</linearGradient>
<rect x="793.9" y="917.7" class="st5" width="321" height="10.8"/>
<linearGradient id="SVGID_2_" gradientUnits="userSpaceOnUse" x1="622.3787" y1="469.4" x2="597.3561" y2="469.4">
	<stop  offset="0" style="stop-color:#0A1975;stop-opacity:0"/>
	<stop  offset="1" style="stop-color:#0A1975"/>
</linearGradient>
<polygon class="st6" points="617.5,449.2 616.9,490 588.2,489.6 588.7,448.8 "/>
<linearGradient id="SVGID_3_" gradientUnits="userSpaceOnUse" x1="916.9682" y1="1007.4434" x2="888.4892" y2="996.252" gradientTransform="matrix(-0.1229 0.3736 -0.3905 -0.129 1179.3905 266.2011)">
	<stop  offset="0" style="stop-color:#0A1975;stop-opacity:0"/>
	<stop  offset="1" style="stop-color:#0A1975"/>
</linearGradient>
<polygon class="st7" points="677.6,484.7 667.3,474.9 682.1,468.4 684.6,469.2 "/>
<linearGradient id="SVGID_4_" gradientUnits="userSpaceOnUse" x1="852.3657" y1="161.5066" x2="819.7136" y2="159.2315" gradientTransform="matrix(0.1295 -0.3714 0.3882 0.1358 516.0613 750.0474)">
	<stop  offset="0" style="stop-color:#0A1975;stop-opacity:0"/>
	<stop  offset="1" style="stop-color:#0A1975"/>
</linearGradient>
<polygon class="st8" points="683.6,453.3 695.9,454.7 685,467.6 683.8,467.3 "/>
<polygon class="st3" points="932,444.2 935.5,433.7 937,434.4 "/>
<polygon class="st3" points="914.4,440.4 914.1,429.2 915.7,429.3 "/>
<polygon class="st3" points="897.3,445.9 891.6,435.9 893.1,435.2 "/>
<polygon class="st3" points="886.3,459.3 876.6,456.8 877.1,455.2 "/>
<linearGradient id="SVGID_5_" gradientUnits="userSpaceOnUse" x1="881.9657" y1="560.3026" x2="888.568" y2="563.4445" gradientTransform="matrix(1 0 0 -1 0 1080)">
	<stop  offset="0" style="stop-color:#FFFFFF"/>
	<stop  offset="1" style="stop-color:#7990DB"/>
</linearGradient>
<path class="st9" d="M879.7,518.4l1.9,3.6c3.9-1.7,7-3.1,9.4-4.3c3.2-1.3,4.9-2.3,4.9-2.3l-1.6-3.9c0,0-1.6,0.6-4.9,2.3
	C887.1,515.1,883.9,516.6,879.7,518.4z"/>
<path class="st3" d="M914.3,531c3.9,8.8,6.8,15.6,6.8,15.6l43.4-11.7c0-0.1-10.7-33.5-12.3-36.4c-3.9-8.1-9.8-11.1-14-11.7
	c0.5-0.8,0.7-1.3,1.1-1.9c1.6-3.2,2.3-6.8,2.3-10.4c0-13.9-11.3-25.3-25.3-25.3S891,460.5,891,474.5c0,3.2,0.6,6.2,1.6,9.1
	c0,0.2,4.6,10.7,10.3,23.2c-8.6,7.1-21.7,17.8-26.2,21.1c-7.4,5.2-4.5,13.6-1.9,16.5c3.6,4.2,17.9,20.8,19.8,22.4l0.3,0.3
	c0.6,0.7,2.3,3.6,4.2,6.2c1.3,2.3,3.9,3.6,4.5,3.9c4.2,2.3,12.4-2.9,13-4.5c0.6-1.3-2.6-6.5-2.3-8.4c0.3-1.3-0.8-1.3-1.1-2.3
	c-0.4-0.3-1.5-2.8-1.8-2.8l-8.5-3.5c-0.3,0-0.3-0.3-0.6-0.6l-9.1-13.6c-0.7-0.7-0.3-1.7,0.3-2.3l29.5-25L914.3,531z M912.9,495.8
	c-0.3-0.3-0.9-1.2-1.2-1.5c0.6-1.3,1-2.6,1-4.2c0-5.5-4.2-10.4-9.1-10.4c-1,0-1.9,0.3-2.9,0.6c-0.6-1.9-0.6-3.9-0.6-5.8
	c0-12,9.1-21.4,19.8-21.4c11,0,19.8,9.7,19.8,21.4c0,3.2-1,6.9-2.3,9.8L912.9,495.8z"/>
<linearGradient id="SVGID_6_" gradientUnits="userSpaceOnUse" x1="901.9161" y1="517.2975" x2="913.359" y2="504.9393" gradientTransform="matrix(1 0 0 -1 0 1080)">
	<stop  offset="0" style="stop-color:#FFFFFF"/>
	<stop  offset="1" style="stop-color:#7990DB"/>
</linearGradient>
<path class="st10" d="M918.9,574.2c0.6-1.6-3.1-6.3-3.2-8.9c-0.5-4.7-4.3-6.1-4.3-6.1s0.4,6.4,2.4,9.6c0.6,1.3-0.6,2.6-3.9,4.4
	c-2.6,1.6-4.2,2.3-5.5,2.6c-1.6,0.3-4.2-1.6-4.2-1.6l-1.6-1.4c1.6,2.3,3.2,4.8,4.2,5.2C907.2,580.6,918.6,575.8,918.9,574.2z"/>
<linearGradient id="SVGID_7_" gradientUnits="userSpaceOnUse" x1="929.6704" y1="586.3928" x2="915.8872" y2="579.9608" gradientTransform="matrix(1 0 0 -1 0 1080)">
	<stop  offset="0" style="stop-color:#FFFFFF"/>
	<stop  offset="1" style="stop-color:#7990DB"/>
</linearGradient>
<polygon class="st11" points="932.6,490.2 911.1,500.6 915.2,502.4 933.5,493.7 "/>
<rect x="899.6" y="513.8" transform="matrix(0.8021 -0.5971 0.5971 0.8021 -131.6432 641.8367)" class="st4" width="6.3" height="11.5"/>
<circle class="st12" cx="942.8" cy="504.8" r="4.7"/>
<linearGradient id="SVGID_8_" gradientUnits="userSpaceOnUse" x1="940.8704" y1="540.551" x2="940.4717" y2="533.5731" gradientTransform="matrix(0.9412 0.3379 0.259 -0.7214 -81.9286 625.2435)">
	<stop  offset="0" style="stop-color:#FFFFFF"/>
	<stop  offset="1" style="stop-color:#7990DB"/>
</linearGradient>
<path class="st13" d="M924.2,557l37.1,15.4l9.2-10.1l-44.7-16.4c0,0-3.9-0.6-7.4-5.5L924.2,557z"/>
<linearGradient id="SVGID_9_" gradientUnits="userSpaceOnUse" x1="963.0388" y1="591.8704" x2="962.7509" y2="586.8322" gradientTransform="matrix(0.9693 -0.2458 -0.1884 -0.743 149.643 1216.009)">
	<stop  offset="0" style="stop-color:#FFFFFF"/>
	<stop  offset="1" style="stop-color:#7990DB"/>
</linearGradient>
<polygon class="st14" points="959.6,550.2 993.6,542.1 993.6,533.2 949.2,543.5 "/>
<linearGradient id="SVGID_10_" gradientUnits="userSpaceOnUse" x1="965.2367" y1="589.0381" x2="967.9359" y2="584.8675" gradientTransform="matrix(0.3488 0.9372 0.7183 -0.2674 251.0903 -199.3547)">
	<stop  offset="0" style="stop-color:#FFFFFF"/>
	<stop  offset="1" style="stop-color:#7990DB"/>
</linearGradient>
<polygon class="st15" points="993.5,542.5 1021.9,566.3 1024.4,559.3 997.2,533.9 "/>
<linearGradient id="SVGID_11_" gradientUnits="userSpaceOnUse" x1="994.9814" y1="544.7494" x2="994.3654" y2="540.9998" gradientTransform="matrix(1 0 0 -1 0 1080)">
	<stop  offset="0" style="stop-color:#FFFFFF"/>
	<stop  offset="1" style="stop-color:#7990DB"/>
</linearGradient>
<path class="st16" d="M993.6,542.9l-0.7-10c0,0,3.3-0.8,4.5,0.3C998.8,534.3,993.6,542.9,993.6,542.9z"/>
<linearGradient id="SVGID_12_" gradientUnits="userSpaceOnUse" x1="994.1335" y1="696.1752" x2="993.787" y2="690.1128" gradientTransform="matrix(0.2846 -0.7546 -0.55 -0.2074 1070.707 1375.5618)">
	<stop  offset="0" style="stop-color:#FFFFFF"/>
	<stop  offset="1" style="stop-color:#7990DB"/>
</linearGradient>
<polygon class="st17" points="969.6,502.4 984.5,465.9 977.2,462.1 965.5,491.2 "/>
<linearGradient id="SVGID_13_" gradientUnits="userSpaceOnUse" x1="988.0312" y1="474.6562" x2="987.0365" y2="469.0854" gradientTransform="matrix(1 0 0 -1 0 1080)">
	<stop  offset="0" style="stop-color:#FFFFFF"/>
	<stop  offset="1" style="stop-color:#7990DB"/>
</linearGradient>
<path class="st18" d="M975.2,613.7c12.5,0.6,17.4,0.4,17.4,0.4l5.6-1.5c-1.1-7.9-15.3-10.6-15.3-10.6S974.1,613.6,975.2,613.7z"/>
<linearGradient id="SVGID_14_" gradientUnits="userSpaceOnUse" x1="989.5851" y1="528.1033" x2="989.251" y2="522.2574" gradientTransform="matrix(0.3488 0.9372 0.7183 -0.2674 251.0903 -199.3547)">
	<stop  offset="0" style="stop-color:#FFFFFF"/>
	<stop  offset="1" style="stop-color:#7990DB"/>
</linearGradient>
<polygon class="st19" points="960.4,570 977.1,610.8 982.8,602.8 968.7,564.5 "/>
<linearGradient id="SVGID_15_" gradientUnits="userSpaceOnUse" x1="968.5553" y1="510.5659" x2="968.0366" y2="507.885" gradientTransform="matrix(1.3865 1.0741 1.162 -1.4999 -968.0107 290.7031)">
	<stop  offset="0" style="stop-color:#FFFFFF"/>
	<stop  offset="1" style="stop-color:#7990DB"/>
</linearGradient>
<path class="st20" d="M960.1,571.7l6.4-9.7c0,0,4.8,1.1,5.2,4S960.1,571.7,960.1,571.7z"/>
<linearGradient id="SVGID_16_" gradientUnits="userSpaceOnUse" x1="942.3228" y1="690.4483" x2="943.3964" y2="685.9284" gradientTransform="matrix(1.241473e-02 -0.5892 -0.6632 -1.397336e-02 1422.9545 1024.1571)">
	<stop  offset="0" style="stop-color:#FFFFFF"/>
	<stop  offset="1" style="stop-color:#7990DB"/>
</linearGradient>
<path class="st21" d="M982.1,464.2l-4-10.6c0,0-2.6-0.9-2.9,1.1c-0.3,2.6,1,10.3,1,10.3L982.1,464.2z"/>
<linearGradient id="SVGID_17_" gradientUnits="userSpaceOnUse" x1="908.4982" y1="586.3591" x2="911.8707" y2="583.6577" gradientTransform="matrix(7.192676e-03 0.8064 0.5878 -5.242274e-03 600.3095 -240.3331)">
	<stop  offset="0" style="stop-color:#FFFFFF"/>
	<stop  offset="1" style="stop-color:#7990DB"/>
</linearGradient>
<polygon class="st22" points="944.5,487.3 954,499 954.4,488.2 950,487.6 "/>
<linearGradient id="SVGID_18_" gradientUnits="userSpaceOnUse" x1="904.6715" y1="607.1334" x2="907.3215" y2="599.5984" gradientTransform="matrix(0.7674 0.2478 0.1806 -0.5593 156.7284 607.7969)">
	<stop  offset="0" style="stop-color:#FFFFFF"/>
	<stop  offset="1" style="stop-color:#7990DB"/>
</linearGradient>
<polygon class="st23" points="954,499 969.3,500.7 965.6,491.2 953.9,490.6 "/>
<path class="st4" d="M908.1,488.4c0,2.1-0.6,3.9-2.9,4.2c-1.9,0.3-3.9-1-4.5-2.9v0.3c0.7,3.9,2.9,4.5,4.9,4.2
	C907.5,493.9,908.8,491,908.1,488.4C908.1,487.8,908.1,488.7,908.1,488.4z"/>
<linearGradient id="SVGID_19_" gradientUnits="userSpaceOnUse" x1="921.1406" y1="485.3794" x2="923.6691" y2="481.4729" gradientTransform="matrix(-7.774056e-02 0.997 0.7641 5.952065e-02 621.6384 -409.9204)">
	<stop  offset="0" style="stop-color:#FFFFFF"/>
	<stop  offset="1" style="stop-color:#7990DB"/>
</linearGradient>
<polygon class="st24" points="911.5,534.2 919.6,552.3 925.2,545.9 917.2,526 "/>
<linearGradient id="SVGID_20_" gradientUnits="userSpaceOnUse" x1="882.68" y1="454.5291" x2="884.8807" y2="451.1287" gradientTransform="matrix(-7.774056e-02 0.997 0.7641 5.952065e-02 621.6384 -409.9204)">
	<stop  offset="0" style="stop-color:#FFFFFF"/>
	<stop  offset="1" style="stop-color:#7990DB"/>
</linearGradient>
<polygon class="st25" points="891.7,493.4 898.6,510.3 904.5,505.6 895,489.1 "/>
<linearGradient id="SVGID_21_" gradientUnits="userSpaceOnUse" x1="1051.272" y1="523.1468" x2="1048.3335" y2="516.9728" gradientTransform="matrix(0.5197 -0.6891 -0.4836 -0.3647 738.7171 1468.7748)">
	<stop  offset="0" style="stop-color:#FFFFFF"/>
	<stop  offset="1" style="stop-color:#7990DB"/>
</linearGradient>
<path class="st26" d="M1022.8,566c7.7-2.7,18.2-10.6,18.2-10.6l3.5-5.4c-4.7-4.7-21.4,8.8-21.4,8.8S1022.2,566.7,1022.8,566z"/>
<g class="st27">
	<path class="st4" d="M751.9,839.4c0-0.5,0.4-0.9,0.9-0.9s0.9,0.4,0.9,0.9v23.8c0,0.5-0.4,0.9-0.9,0.9s-0.9-0.4-0.9-0.9V839.4z"/>
	<path class="st4" d="M764.7,846.3c0-0.5,0.4-0.9,0.9-0.9s0.9,0.4,0.9,0.9v2.7c1.2-2.2,3.3-3.9,6.7-3.9c4.7,0,7.4,3.2,7.4,7.6v10.5
		c0,0.5-0.4,0.9-0.9,0.9s-0.9-0.4-0.9-0.9V853c0-3.8-2.1-6.3-5.9-6.3c-3.6,0-6.4,2.8-6.4,6.6v9.9c0,0.5-0.4,0.9-0.9,0.9
		s-0.9-0.4-0.9-0.9L764.7,846.3L764.7,846.3z"/>
	<path class="st4" d="M791.3,859.2v-12.1h-2c-0.4,0-0.8-0.4-0.8-0.8c0-0.4,0.4-0.8,0.8-0.8h2v-5.1c0-0.5,0.4-0.9,0.9-0.9
		s0.9,0.4,0.9,0.9v5.1h5.8c0.4,0,0.8,0.4,0.8,0.8c0,0.4-0.4,0.8-0.8,0.8h-5.8V859c0,2.6,1.6,3.6,3.7,3.6c1.3,0,1.8-0.4,2.1-0.4
		c0.4,0,0.8,0.4,0.8,0.8c0,0.4-0.2,0.6-0.6,0.8c-0.7,0.3-1.6,0.5-2.6,0.5C793.6,864.3,791.3,862.8,791.3,859.2z"/>
	<path class="st4" d="M815.5,864.4c-4.9,0-9.1-3.9-9.1-9.6v-0.1c0-5.4,3.8-9.6,8.8-9.6c5.2,0,8.5,4.3,8.5,9.6c0,0.4-0.4,0.8-0.9,0.8
		h-14.5c0.3,4.6,3.6,7.3,7.2,7.3c2.6,0,4.5-1.1,6-2.5c0.1-0.1,0.3-0.3,0.6-0.3c0.5,0,0.9,0.4,0.9,0.8c0,0.2-0.1,0.4-0.3,0.6
		C820.9,863.2,818.9,864.4,815.5,864.4z M821.8,853.9c-0.3-3.7-2.4-7.2-6.6-7.2c-3.7,0-6.5,3.1-6.8,7.2H821.8z"/>
	<path class="st4" d="M832.4,846.3c0-0.5,0.4-0.9,0.9-0.9s0.9,0.4,0.9,0.9v4.5c1.6-3.6,4.8-5.5,7.4-5.5c0.5,0,0.9,0.4,0.9,1
		c0,0.5-0.4,0.9-0.9,1c-3.9,0.4-7.4,3.3-7.4,9.2v6.8c0,0.5-0.4,0.9-0.9,0.9s-0.9-0.4-0.9-0.9V846.3z"/>
	<path class="st4" d="M850.4,846.3c0-0.5,0.4-0.9,0.9-0.9s0.9,0.4,0.9,0.9v2.7c1.2-2.2,3.3-3.9,6.7-3.9c4.7,0,7.4,3.2,7.4,7.6v10.5
		c0,0.5-0.4,0.9-0.9,0.9s-0.9-0.4-0.9-0.9V853c0-3.8-2.1-6.3-5.9-6.3c-3.6,0-6.4,2.8-6.4,6.6v9.9c0,0.5-0.4,0.9-0.9,0.9
		s-0.9-0.4-0.9-0.9L850.4,846.3L850.4,846.3z"/>
	<path class="st4" d="M874.5,858.6L874.5,858.6c0-3.9,3.3-6.1,8.1-6.1c2.6,0,4.3,0.3,6.1,0.8v-0.8c0-3.7-2.3-5.7-6.1-5.7
		c-2,0-3.7,0.5-5.3,1.2c-0.1,0.1-0.3,0.1-0.4,0.1c-0.4,0-0.8-0.4-0.8-0.8c0-0.4,0.3-0.7,0.5-0.8c1.9-0.8,3.7-1.4,6.1-1.4
		c2.5,0,4.5,0.7,5.8,2c1.2,1.2,1.9,2.9,1.9,5.2v10.8c0,0.5-0.4,0.9-0.9,0.9s-0.9-0.4-0.9-0.9v-2.3c-1.3,1.8-3.5,3.5-7.1,3.5
		C878.2,864.4,874.5,862.5,874.5,858.6z M888.8,857.1V855c-1.6-0.4-3.6-0.8-6.3-0.8c-3.9,0-6.1,1.7-6.1,4.3v0.1
		c0,2.7,2.5,4.2,5.4,4.2C885.5,862.8,888.8,860.4,888.8,857.1z"/>
	<path class="st4" d="M900.6,838.3c0-0.5,0.4-0.9,0.9-0.9s0.9,0.4,0.9,0.9v24.9c0,0.5-0.4,0.9-0.9,0.9s-0.9-0.4-0.9-0.9V838.3z"/>
	<path class="st4" d="M926,862c-0.1-0.1-0.3-0.4-0.3-0.7c0-0.5,0.4-0.9,0.9-0.9c0.2,0,0.4,0.1,0.6,0.2c1.9,1.4,3.9,2.1,6.2,2.1
		c2.5,0,4.5-1.4,4.5-3.5v-0.1c0-2.2-2.3-3-4.9-3.7c-3-0.9-6.3-1.8-6.3-5.1v-0.1c0-3,2.5-5.1,6.1-5.1c2,0,4.2,0.7,6,1.7
		c0.2,0.1,0.5,0.4,0.5,0.8c0,0.5-0.4,0.9-0.9,0.9c-0.2,0-0.4-0.1-0.5-0.1c-1.6-0.9-3.4-1.5-5.1-1.5c-2.5,0-4.2,1.4-4.2,3.2v0.1
		c0,2.1,2.5,2.8,5.1,3.6c3,0.8,6.1,1.9,6.1,5.2v0.1c0,3.3-2.8,5.4-6.4,5.4C930.6,864.3,927.8,863.4,926,862z"/>
	<path class="st4" d="M956.4,864.4c-4.9,0-9.1-3.9-9.1-9.6v-0.1c0-5.4,3.8-9.6,8.8-9.6c5.2,0,8.5,4.3,8.5,9.6c0,0.4-0.4,0.8-0.9,0.8
		h-14.5c0.3,4.6,3.6,7.3,7.2,7.3c2.6,0,4.5-1.1,6-2.5c0.1-0.1,0.3-0.3,0.6-0.3c0.5,0,0.9,0.4,0.9,0.8c0,0.2-0.1,0.4-0.3,0.6
		C961.8,863.2,959.7,864.4,956.4,864.4z M962.7,853.9c-0.3-3.7-2.4-7.2-6.6-7.2c-3.7,0-6.5,3.1-6.8,7.2H962.7z"/>
	<path class="st4" d="M973.3,846.3c0-0.5,0.4-0.9,0.9-0.9s0.9,0.4,0.9,0.9v4.5c1.6-3.6,4.8-5.5,7.4-5.5c0.5,0,0.9,0.4,0.9,1
		c0,0.5-0.4,0.9-0.9,1c-3.9,0.4-7.4,3.3-7.4,9.2v6.8c0,0.5-0.4,0.9-0.9,0.9s-0.9-0.4-0.9-0.9V846.3z"/>
	<path class="st4" d="M998.4,864.2L998.4,864.2c-0.6,0-0.9-0.3-1.1-0.8l-7.4-16.7c-0.1-0.2-0.1-0.4-0.1-0.5c0-0.5,0.4-0.9,0.9-0.9
		s0.8,0.3,0.9,0.7l6.7,15.9l6.8-16c0.1-0.4,0.4-0.7,0.9-0.7s0.9,0.4,0.9,0.9c0,0.2,0,0.3-0.1,0.5l-7.5,16.7
		C999.2,863.9,998.9,864.2,998.4,864.2z"/>
	<path class="st4" d="M1022.5,864.4c-4.9,0-9.1-3.9-9.1-9.6v-0.1c0-5.4,3.8-9.6,8.8-9.6c5.2,0,8.5,4.3,8.5,9.6
		c0,0.4-0.4,0.8-0.9,0.8h-14.5c0.3,4.6,3.6,7.3,7.2,7.3c2.6,0,4.5-1.1,6-2.5c0.1-0.1,0.3-0.3,0.6-0.3c0.5,0,0.9,0.4,0.9,0.8
		c0,0.2-0.1,0.4-0.3,0.6C1027.9,863.2,1025.8,864.4,1022.5,864.4z M1028.7,853.9c-0.3-3.7-2.4-7.2-6.6-7.2c-3.7,0-6.5,3.1-6.8,7.2
		H1028.7z"/>
	<path class="st4" d="M1039.3,846.3c0-0.5,0.4-0.9,0.9-0.9s0.9,0.4,0.9,0.9v4.5c1.6-3.6,4.8-5.5,7.4-5.5c0.5,0,0.9,0.4,0.9,1
		c0,0.5-0.4,0.9-0.9,1c-3.9,0.4-7.4,3.3-7.4,9.2v6.8c0,0.5-0.4,0.9-0.9,0.9s-0.9-0.4-0.9-0.9V846.3z"/>
	<path class="st4" d="M1079.4,864.4c-4.9,0-9.1-3.9-9.1-9.6v-0.1c0-5.4,3.8-9.6,8.8-9.6c5.2,0,8.5,4.3,8.5,9.6
		c0,0.4-0.4,0.8-0.9,0.8h-14.5c0.3,4.6,3.6,7.3,7.2,7.3c2.6,0,4.5-1.1,6-2.5c0.1-0.1,0.3-0.3,0.6-0.3c0.5,0,0.9,0.4,0.9,0.8
		c0,0.2-0.1,0.4-0.3,0.6C1084.8,863.2,1082.8,864.4,1079.4,864.4z M1085.7,853.9c-0.3-3.7-2.4-7.2-6.6-7.2c-3.7,0-6.5,3.1-6.8,7.2
		H1085.7z"/>
	<path class="st4" d="M1096.3,846.3c0-0.5,0.4-0.9,0.9-0.9s0.9,0.4,0.9,0.9v4.5c1.6-3.6,4.8-5.5,7.4-5.5c0.5,0,0.9,0.4,0.9,1
		c0,0.5-0.4,0.9-0.9,1c-3.9,0.4-7.4,3.3-7.4,9.2v6.8c0,0.5-0.4,0.9-0.9,0.9s-0.9-0.4-0.9-0.9V846.3z"/>
	<path class="st4" d="M1114.2,846.3c0-0.5,0.4-0.9,0.9-0.9s0.9,0.4,0.9,0.9v4.5c1.6-3.6,4.8-5.5,7.4-5.5c0.5,0,0.9,0.4,0.9,1
		c0,0.5-0.4,0.9-0.9,1c-3.9,0.4-7.4,3.3-7.4,9.2v6.8c0,0.5-0.4,0.9-0.9,0.9s-0.9-0.4-0.9-0.9V846.3z"/>
	<path class="st4" d="M1130,854.8L1130,854.8c0-5.3,4-9.7,9.5-9.7s9.5,4.4,9.5,9.6v0.1c0,5.2-4,9.7-9.5,9.7
		C1134,864.4,1130,860,1130,854.8z M1147.1,854.8L1147.1,854.8c0-4.5-3.3-8.1-7.6-8.1c-4.4,0-7.5,3.6-7.5,7.9v0.1c0,4.5,3.3,8,7.6,8
		C1143.9,862.8,1147.1,859.2,1147.1,854.8z"/>
	<path class="st4" d="M1158,846.3c0-0.5,0.4-0.9,0.9-0.9s0.9,0.4,0.9,0.9v4.5c1.6-3.6,4.8-5.5,7.4-5.5c0.5,0,0.9,0.4,0.9,1
		c0,0.5-0.4,0.9-0.9,1c-3.9,0.4-7.4,3.3-7.4,9.2v6.8c0,0.5-0.4,0.9-0.9,0.9s-0.9-0.4-0.9-0.9V846.3z"/>
</g>
<linearGradient id="SVGID_22_" gradientUnits="userSpaceOnUse" x1="901.4503" y1="633.4409" x2="901.722" y2="628.7782" gradientTransform="matrix(0.8529 -0.5221 -0.4002 -0.6538 387.1515 1411.8984)">
	<stop  offset="0" style="stop-color:#FFFFFF"/>
	<stop  offset="1" style="stop-color:#7990DB"/>
</linearGradient>
<polygon class="st28" points="893.5,539.2 894.3,538.7 918.2,523.2 923,514.2 882.2,540.4 "/>
<linearGradient id="SVGID_23_" gradientUnits="userSpaceOnUse" x1="911.4775" y1="662.8229" x2="912.2132" y2="658.2889" gradientTransform="matrix(-0.5134 -0.8581 -0.6578 0.3935 1797.0198 1071.0411)">
	<stop  offset="0" style="stop-color:#FFFFFF"/>
	<stop  offset="1" style="stop-color:#7990DB"/>
</linearGradient>
<polygon class="st29" points="902.9,555.8 892.6,540.4 883.3,540.3 901.7,560.2 "/>
<linearGradient id="SVGID_24_" gradientUnits="userSpaceOnUse" x1="886.1408" y1="539.6522" x2="890.6928" y2="539.999">
	<stop  offset="0" style="stop-color:#FFFFFF"/>
	<stop  offset="1" style="stop-color:#7990DB"/>
</linearGradient>
<path class="st30" d="M893.9,538.9c0,0-1.3,1.1-0.7,2.6l-9.9-1.5L893.9,538.9z"/>
</svg>
