<?xml version="1.0" encoding="utf-8"?>
<!-- Generator: Adobe Illustrator 19.2.0, SVG Export Plug-In . SVG Version: 6.00 Build 0)  -->
<svg version="1.1" id="Layer_1" xmlns="http://www.w3.org/2000/svg" xmlns:xlink="http://www.w3.org/1999/xlink" x="0px" y="0px"
	 viewBox="0 0 1920 1080" style="enable-background:new 0 0 1920 1080;" xml:space="preserve">
<style type="text/css">
	.st0{fill:#0A1975;}
	.st1{opacity:0.5;fill:#7990DB;enable-background:new    ;}
	.st2{opacity:0.5;fill:#FFFFFF;enable-background:new    ;}
	.st3{fill:#FFFFFF;}
	.st4{fill:#7990DB;}
	.st5{opacity:0.6;fill:url(#SVGID_1_);enable-background:new    ;}
	.st6{fill:url(#SVGID_2_);}
	.st7{fill:url(#SVGID_3_);}
	.st8{fill:url(#SVGID_4_);}
	.st9{fill:url(#SVGID_5_);}
	.st10{fill:url(#SVGID_6_);}
	.st11{fill:url(#SVGID_7_);}
	.st12{fill:url(#SVGID_8_);}
	.st13{fill:url(#SVGID_9_);}
	.st14{fill:url(#SVGID_10_);}
	.st15{fill:url(#SVGID_11_);}
	.st16{fill:url(#SVGID_12_);}
	.st17{fill:url(#SVGID_13_);}
	.st18{fill:url(#SVGID_14_);}
	.st19{fill:url(#SVGID_15_);}
	.st20{fill:url(#SVGID_16_);}
	.st21{fill:url(#SVGID_17_);}
	.st22{fill:url(#SVGID_18_);}
	.st23{fill:url(#SVGID_19_);}
	.st24{fill:url(#SVGID_20_);}
	.st25{fill:url(#SVGID_21_);}
	.st26{fill:url(#SVGID_22_);}
	.st27{fill:url(#SVGID_23_);}
	.st28{fill:url(#SVGID_24_);}
	.st29{fill:url(#SVGID_25_);}
	.st30{fill:url(#SVGID_26_);}
	.st31{fill:url(#SVGID_27_);}
	.st32{fill:url(#SVGID_28_);}
	.st33{opacity:0.34;fill:url(#SVGID_29_);enable-background:new    ;}
	.st34{fill:url(#SVGID_30_);}
	.st35{fill:url(#SVGID_31_);}
	.st36{fill:url(#SVGID_32_);}
	.st37{enable-background:new    ;}
</style>
<rect x="-17" y="-20" class="st0" width="1954" height="1118"/>
<path class="st1" d="M650.9,227.8c-1.5,0-2.9-1.3-2.9-2.9c0,1.5-1.3,2.9-2.9,2.9c1.5,0,2.9,1.3,2.9,2.9
	C648,228.9,649.3,227.8,650.9,227.8z"/>
<circle class="st2" cx="281.6" cy="176.2" r="0.6"/>
<circle class="st1" cx="377.7" cy="296.3" r="1"/>
<circle class="st1" cx="798.7" cy="706.2" r="0.6"/>
<circle class="st1" cx="408.3" cy="677.3" r="1"/>
<circle class="st1" cx="716.1" cy="158.8" r="0.6"/>
<circle class="st2" cx="745" cy="560" r="1"/>
<circle class="st2" cx="1187.1" cy="507.9" r="0.6"/>
<circle class="st1" cx="1177.5" cy="630.2" r="1"/>
<circle class="st1" cx="1404.1" cy="473.3" r="0.6"/>
<circle class="st2" cx="1371.2" cy="305.9" r="1"/>
<circle class="st2" cx="1456.1" cy="648.5" r="0.6"/>
<circle class="st2" cx="1073.3" cy="205" r="1"/>
<path class="st1" d="M613.1,737.6c-1.5,0-2.9-1.3-2.9-2.9c0,1.5-1.3,2.9-2.9,2.9c1.5,0,2.9,1.3,2.9,2.9
	C610.4,739,611.6,737.6,613.1,737.6z"/>
<path class="st1" d="M1654,235.5c-1.5,0-2.9-1.3-2.9-2.9c0,1.5-1.3,2.9-2.9,2.9c1.5,0,2.9,1.3,2.9,2.9
	C1651.1,236.8,1652.5,235.5,1654,235.5z"/>
<path class="st2" d="M1404.9,1004.9c-1.5,0-2.9-1.3-2.9-2.9c0,1.5-1.3,2.9-2.9,2.9c1.5,0,2.9,1.3,2.9,2.9
	C1402.2,1006.2,1403.3,1004.9,1404.9,1004.9z"/>
<path class="st2" d="M465.1,193.5c-1.5,0-2.9-1.3-2.9-2.9c0,1.5-1.3,2.9-2.9,2.9c1.5,0,2.9,1.3,2.9,2.9
	C462.2,194.6,463.5,193.5,465.1,193.5z"/>
<path class="st1" d="M277,875.1c-1.5,0-2.9-1.3-2.9-2.9c0,1.5-1.3,2.9-2.9,2.9c1.5,0,2.9,1.3,2.9,2.9
	C274.1,876.2,275.2,875.1,277,875.1z"/>
<circle class="st3" cx="893.9" cy="954" r="0.6"/>
<circle class="st2" cx="511.9" cy="985.4" r="0.6"/>
<circle class="st2" cx="1765.7" cy="850.6" r="1"/>
<circle class="st4" cx="1206.9" cy="855.3" r="0.6"/>
<circle class="st1" cx="226.3" cy="399.1" r="1"/>
<circle class="st1" cx="890.6" cy="306.3" r="0.6"/>
<circle class="st2" cx="1322.3" cy="88.2" r="1"/>
<circle class="st2" cx="1377.7" cy="694.7" r="0.6"/>
<circle class="st2" cx="222.5" cy="567.2" r="1"/>
<circle class="st2" cx="1639.6" cy="397" r="0.6"/>
<circle class="st3" cx="1657.9" cy="497.7" r="1"/>
<circle class="st2" cx="1335.9" cy="474.8" r="0.6"/>
<circle class="st2" cx="841.1" cy="106.1" r="1"/>
<circle class="st2" cx="150.7" cy="756.3" r="0.6"/>
<circle class="st2" cx="129.5" cy="240.3" r="0.6"/>
<circle class="st2" cx="339.9" cy="1005.6" r="1"/>
<circle class="st4" cx="370.7" cy="56.8" r="0.6"/>
<circle class="st1" cx="1768.6" cy="89.1" r="1"/>
<circle class="st2" cx="443.9" cy="824.3" r="0.6"/>
<circle class="st2" cx="1115.9" cy="1021" r="1"/>
<linearGradient id="SVGID_1_" gradientUnits="userSpaceOnUse" x1="954.4" y1="457.5672" x2="954.4" y2="448.7365" gradientTransform="matrix(1 0 0 -0.8693 0 1315.9664)">
	<stop  offset="0" style="stop-color:#0A1975;stop-opacity:0"/>
	<stop  offset="0.6075" style="stop-color:#0A1975"/>
</linearGradient>
<rect x="793.9" y="917.7" class="st5" width="321" height="10.8"/>
<g>
	<path class="st4" d="M869.3,367.1l15.3,3.2c-0.2-0.2-5.4-5.7-5.6-5.8c0.8-2.1,8.7,7.1,9.6,4.9c6.6-15.4,0.6-25.3-10.6-28.7
		c-3-0.9-4.6,1.7-5.1,1.9c-4.5-25.2,14.5-42.5,33.9-41.5c16.8,0.9,25.1,13.4,26,31.4c0.3,4.9,1.1,12-1.2,16.3c-0.5,0.9-2.4,7.2-3,8
		l2.4-4.1c11.3-36.9-13.6-56.3-36.1-54.9c-21.4,1.2-46.1,21.1-31.5,57.6C863.6,355.6,865.6,359.7,869.3,367.1z"/>
	<path class="st2" d="M1077.4,340.3c-1.5,0-2.9-1.3-2.9-2.9c0,1.5-1.3,2.9-2.9,2.9c1.5,0,2.9,1.3,2.9,2.9
		C1074.5,341.7,1075.8,340.3,1077.4,340.3z"/>
	<path class="st2" d="M659,277.9c-1,0-1.7-0.8-1.7-1.7c0,1-0.8,1.7-1.7,1.7c1,0,1.7,0.8,1.7,1.7C657.2,278.7,658,277.9,659,277.9z"
		/>
	<circle class="st1" cx="501.1" cy="399.8" r="1"/>
	<circle class="st2" cx="583.3" cy="492.4" r="1"/>
	<path class="st3" d="M966.2,427l46.8-6.7c0,0,13.5-2.1,21.8,6.2c8.8,9.3,34.8,35.9,34.8,35.9l25.5-15.1c0,0,3.7-2.6,7.8,2.1
		l-2.6,5.1l-38.4,27.1l-52.4-28L961.3,477l-38.9-18.1l1.6-18.1L966.2,427z"/>
	<path class="st3" d="M933,358.1l10.3-5.3l27.7,1.1l17.6-36.8c0,0-1.8-12.3,0-16c0.8-1.1,1.9-3.2,5.1-2.9c2.6,0,7.2,0.6,10.9,0.6
		c4.2,0,9.6,4.3,7.5,10.1c-0.5,1.6-1,7.2-5.1,13c-2.2,3-18.9,47.7-18.9,47.7s3,5.8-5.8,7.2c-8.8,1.6-42.1,5.1-42.1,5.1L933,358.1z"
		/>
	<path class="st4" d="M868,352.7l-12,5.1c0,0-12.5,4.2-7.8,15.5c5.8,13.5,32.2,84.6,32.2,84.6l15.5,8.8l15.1-5.1l-4.1-67.4
		L868,352.7z"/>
	<path class="st4" d="M1101.2,453l-1.6-1c-3-1.6-8.3,2.1-10.9,4.2l-20.8,15.1l-34.8-36.4c-6.2-6.2-12.5-7.2-20.8-5.1L938,449.4
		l13,23.4l10.4,4.6l51.9-16.7l55.1,40C1067.9,500.7,1101.2,454.1,1101.2,453z"/>
	<path class="st4" d="M995.3,298.2c-1.6,0-2.6,0-3,0l1,19.2L976.2,360c0,0-1,3.7-2.1,3.7c-13.5,0-18.1,0.5-19.2-1.6
		c-4.6-7.8-10.9-9.3-10.9-9.3l-13.1-1.1l10.1,29.6c0,0,34.3,4.6,43.1,3s10.4-9.3,10.4-9.3s15.5-48.2,17.6-51.9
		c3.7-5.8,7.2-14.1,7.8-16c2.1-5.8-10.9-18.1-15.1-18.1C1000.9,289.4,997.9,298.2,995.3,298.2z"/>
	<path class="st3" d="M899.7,447.2l17.6,18.7c0,0-7.8,0.5,4.2,6.2c12,5.8,47.3,25,47.3,25l17.1,51.4c0,0,30.1,5.8,35.9,5.8
		c6.6-1.3,19.2-7.2,19.2-7.2s-2.4-6.1-3.7-7.8c-3.2-4.3-29.5-5.3-29.5-5.3l-10.6-48.7c0,0-2.1-11.4-9.3-16.7
		c-13-8.8-58.1-38.9-58.1-38.9L899.7,447.2z"/>
	<path class="st4" d="M1011.8,544.9l-15.5,0.5l-19.7-54c-1-3.7-2.6-5.8-5.8-7.2l-48.9-20.8c0,0-13.3-3.7-19.5-17.8
		c-0.5-1-4.6-1.9-4.6-1.9l10.1,23.9c0,0,4.2,10.9,12.5,14.6c10.4,5.1,35.2,17.1,40,19.2c0.5,0,1,0.5,1,1l19.2,53.5
		c0,0,2.6,8.8,7.8,7.8c5.8-1,33.8-9.3,33.8-9.3S1018.5,544.9,1011.8,544.9z"/>
	<path class="st3" d="M860.4,395.6c0,0-1.8,2.1-7,4.2c-3.7,1.9-6.7,5.4-12.8,8.2c-2.4,1-5,2.1-7.7,3.2c-9.9,4.2-21.8,8.3-35.9,12.5
		c-14.1,4.2-30.1,8.3-48.2,9.9c-63.9,7.4-105.9-8.9-70.2-79.6c1.7-3.4,10.2-18.4,10.2-26.2c0.1-9.8-5.8-26.9-44.2-17.4
		c-11.4,3-22.3,8.3-33.8,11.4c-11.4,3-23.4,4.6-35.2,5.8c-12,0.5-23.9,0.5-35.9-1c-11.4-1.6-23.4-4.6-33.2-11.4
		c-4.6-3.7-8.8-8.3-10.4-14.1c-2.1-5.1-2.6-11.4-0.5-17.1c2.1-5.8,6.7-9.9,12.5-10.9c5.8-1,11.4,0.5,15.5,4.2
		c4.2,3.7,6.2,8.8,7.8,14.1c1,5.1,1,10.4,0,15.5s-3,9.9-6.2,14.1c-3,4.2-6.7,7.2-10.9,10.4c-8.3,5.8-17.1,8.8-26,10.4
		c-17.6,3.7-34.3,3.7-48.9,2.6s-27.1-3.7-37.3-6.2c-9.9-2.6-17.6-5.8-22.9-8.3c-2.6-1-4.2-2.1-5.8-3c-1-0.5-2.1-1-2.1-1
		s0.5,0.5,2.1,1c1,0.5,3,1.6,5.8,3c5.1,2.6,13,5.1,22.9,7.8c9.9,2.6,22.9,4.6,37.3,5.8c14.6,1,31.2,1,48.2-3
		c8.8-2.1,17.6-5.1,25.5-10.4c4.2-2.6,7.2-6.2,10.4-9.9c3-4.2,5.1-8.8,6.2-13.5c1-5.1,1-10.4,0-15.1c-1-5.1-3.7-9.9-7.2-13.5
		c-4.2-3-9.3-5.1-14.6-4.2c-5.1,1-9.9,4.6-11.4,9.9c-2.1,5.1-1.6,10.9,0.5,16c1.6,5.1,5.1,9.9,9.9,13c9.3,6.7,20.8,9.3,32.2,10.9
		c11.4,1.6,23.4,1.6,35.2,0.5c12-1,23.9-2.6,34.8-5.8c11.4-3,22.3-8.3,33.8-11.4c22-4.9,32.7-1.6,37.2,0.6
		c20.5,9.9,9.3,31.5,6.7,36.4c-29.5,60.4-13.8,72.7,5.1,80.9c4.6,2.1,24,6.1,56.4,3.2c17.6-2.1,33.8-6.2,47.3-10.4
		c14.1-4.2,25.5-8.8,35.2-12.5c2.4-1,6.1-3,8.2-3.8c6.6-2.9,10.6-1.9,14.1-3.8c5.1-2.6,5.6-1.1,5.6-1.1L860.4,395.6z"/>
	
		<linearGradient id="SVGID_2_" gradientUnits="userSpaceOnUse" x1="424.8501" y1="756.1" x2="384.7669" y2="756.1" gradientTransform="matrix(1 0 0 -1 0 1080)">
		<stop  offset="0" style="stop-color:#0A1975;stop-opacity:0"/>
		<stop  offset="1" style="stop-color:#0A1975"/>
	</linearGradient>
	<polygon class="st6" points="417,291.5 416.1,356.9 370.1,356.2 370.9,290.9 	"/>
	
		<linearGradient id="SVGID_3_" gradientUnits="userSpaceOnUse" x1="748.3456" y1="-465.3652" x2="702.7256" y2="-447.438" gradientTransform="matrix(-0.1229 0.3736 0.3905 0.129 780.1085 119.4091)">
		<stop  offset="0" style="stop-color:#0A1975;stop-opacity:0"/>
		<stop  offset="1" style="stop-color:#0A1975"/>
	</linearGradient>
	<polygon class="st7" points="513.3,348.4 496.8,332.7 520.5,322.3 524.5,323.5 	"/>
	
		<linearGradient id="SVGID_4_" gradientUnits="userSpaceOnUse" x1="1092.9568" y1="1448.9615" x2="1040.6523" y2="1452.6058" gradientTransform="matrix(0.1295 -0.3714 -0.3882 -0.1358 952.7274 904.1394)">
		<stop  offset="0" style="stop-color:#0A1975;stop-opacity:0"/>
		<stop  offset="1" style="stop-color:#0A1975"/>
	</linearGradient>
	<polygon class="st8" points="522.9,298.1 542.6,300.3 525.2,321 523.2,320.5 	"/>
	<polygon class="st3" points="920.8,283.5 926.4,266.7 928.8,267.8 	"/>
	<polygon class="st3" points="892.6,277.4 892.2,259.5 894.7,259.6 	"/>
	<polygon class="st3" points="865.2,286.2 856.1,270.2 858.5,269.1 	"/>
	<polygon class="st3" points="847.6,307.7 832.1,303.7 832.9,301.1 	"/>
	<linearGradient id="SVGID_5_" gradientUnits="userSpaceOnUse" x1="840.6923" y1="404.4632" x2="851.2684" y2="399.4303">
		<stop  offset="0" style="stop-color:#FFFFFF"/>
		<stop  offset="1" style="stop-color:#7990DB"/>
	</linearGradient>
	<path class="st9" d="M837,402.4l3,5.8c6.2-2.7,11.2-5,15.1-6.9c5.1-2.1,7.8-3.7,7.8-3.7l-2.6-6.2c0,0-2.6,1-7.8,3.7
		C848.9,397.1,843.8,399.5,837,402.4z"/>
	<path class="st3" d="M892.5,422.5c6.2,14.1,10.9,25,10.9,25l69.5-18.7c0-0.2-17.1-53.7-19.7-58.3c-6.2-13-13.9-16.7-20.6-17.6
		c14-38-12.6-59.5-36.2-59.3c-22.4,0.1-49.3,19.4-36.1,58.3c0,0.3,5,11.9,14.1,32c-13.8,11.4-34.8,28.5-42,33.8
		c-11.9,8.3-7.2,21.8-3,26.4c5.8,6.7,28.7,33.3,31.7,35.9l0.5,0.5c1,1.1,3.7,5.8,6.7,9.9c2.1,3.7,6.2,5.8,7.2,6.2
		c6.7,3.7,19.9-4.6,20.8-7.2c1-2.1-4.2-10.4-3.7-13.5c0.5-2.1-1.3-2.1-1.8-3.7c-0.6-0.5-2.4-4.5-2.9-4.5l-13.6-5.6
		c-0.5,0-3.4-0.3-3.9-0.8L856.5,440c-1.1-1.1,1.6-5.1,2.6-6.1l47-38.2L892.5,422.5z M890.2,366.2c-0.5-0.5-1.4-1.9-1.9-2.4
		c1-2.1,1.6-4.2,1.6-6.7c0-8.8-6.7-16.7-14.6-16.7c-1.6,0-3,0.5-4.6,1c-4.1-22.8,11.8-41.7,33-41.3c17.6,0.3,28.8,16.2,28.8,35
		c0,5.1-0.8,10.7-3.4,15.1C920.5,364.5,890.2,366.2,890.2,366.2z"/>
	<linearGradient id="SVGID_6_" gradientUnits="userSpaceOnUse" x1="872.6638" y1="473.2931" x2="890.994" y2="493.0894">
		<stop  offset="0" style="stop-color:#FFFFFF"/>
		<stop  offset="1" style="stop-color:#7990DB"/>
	</linearGradient>
	<path class="st10" d="M899.8,491.7c1-2.6-5-10.1-5.1-14.3c-0.8-7.5-6.9-9.8-6.9-9.8s0.6,10.3,3.8,15.4c1,2.1-1,4.2-6.2,7
		c-4.2,2.6-6.7,3.7-8.8,4.2c-2.6,0.5-6.7-2.6-6.7-2.6l-2.6-2.2c2.6,3.7,5.1,7.7,6.7,8.3C881.1,502,899.4,494.3,899.8,491.7z"/>
	<linearGradient id="SVGID_7_" gradientUnits="userSpaceOnUse" x1="917.7653" y1="362.312" x2="878.8303" y2="380.4807">
		<stop  offset="0" style="stop-color:#FFFFFF"/>
		<stop  offset="0.8612" style="stop-color:#7990DB"/>
	</linearGradient>
	<path class="st11" d="M929.1,358.7c-22.6,16.9-49.5,12.3-49.5,12.3l3.3,6.1c0,0,24.3,3.6,46.4-12.3
		C930.1,363.8,930,357.6,929.1,358.7z"/>
	
		<linearGradient id="SVGID_8_" gradientUnits="userSpaceOnUse" x1="876.7803" y1="670.9783" x2="868.375" y2="684.4266" gradientTransform="matrix(1 0 0 -1 0 1080)">
		<stop  offset="0" style="stop-color:#FFFFFF"/>
		<stop  offset="1" style="stop-color:#7990DB"/>
	</linearGradient>
	<path class="st12" d="M863.8,398.2l8.1-6c0,0,1.1,3.4,3.6,7.8c2.7,4.6,7.4,7,7.4,7l-8.1,6c0,0-4.3-2.7-6.8-6.3
		C864.9,402.3,863.8,398.2,863.8,398.2z"/>
	<g>
		
			<linearGradient id="SVGID_9_" gradientUnits="userSpaceOnUse" x1="943.1636" y1="709.5273" x2="934.3821" y2="691.9643" gradientTransform="matrix(1 0 0 -1 0 1080)">
			<stop  offset="0" style="stop-color:#FFFFFF"/>
			<stop  offset="1" style="stop-color:#7990DB"/>
		</linearGradient>
		<path class="st13" d="M938.1,389.3c-4.8,0-8.7-3.9-8.7-8.7s3.9-8.7,8.7-8.7s8.7,3.9,8.7,8.7S942.9,389.3,938.1,389.3z
			 M938.1,374.3c-3.5,0-6.3,2.8-6.3,6.3s2.8,6.3,6.3,6.3s6.3-2.8,6.3-6.3S941.6,374.3,938.1,374.3z"/>
	</g>
	
		<linearGradient id="SVGID_10_" gradientUnits="userSpaceOnUse" x1="905.878" y1="433.332" x2="905.2393" y2="444.5096" gradientTransform="matrix(0.9412 0.3379 -0.259 0.7214 198.9674 -160.6266)">
		<stop  offset="0" style="stop-color:#FFFFFF"/>
		<stop  offset="1" style="stop-color:#7990DB"/>
	</linearGradient>
	<path class="st14" d="M908.3,464.2l59.4,24.7l14.7-16.2l-71.6-26.3c0,0-6.2-1-11.9-8.8L908.3,464.2z"/>
	
		<linearGradient id="SVGID_11_" gradientUnits="userSpaceOnUse" x1="1001.3289" y1="355.112" x2="1000.8677" y2="363.1825" gradientTransform="matrix(0.9693 -0.2458 0.1884 0.743 -53.215 418.4851)">
		<stop  offset="0" style="stop-color:#FFFFFF"/>
		<stop  offset="1" style="stop-color:#7990DB"/>
	</linearGradient>
	<polygon class="st15" points="965,453.3 1019.5,440.3 1019.5,426.1 948.4,442.6 	"/>
	
		<linearGradient id="SVGID_12_" gradientUnits="userSpaceOnUse" x1="898.7319" y1="426.2607" x2="903.0561" y2="432.9415" gradientTransform="matrix(0.3488 0.9372 -0.7183 0.2674 1039.8783 -506.8907)">
		<stop  offset="0" style="stop-color:#FFFFFF"/>
		<stop  offset="1" style="stop-color:#7990DB"/>
	</linearGradient>
	<polygon class="st16" points="1019.3,441 1064.8,479.1 1068.8,467.9 1025.3,427.2 	"/>
	<linearGradient id="SVGID_13_" gradientUnits="userSpaceOnUse" x1="1021.7245" y1="429.3468" x2="1020.7377" y2="435.3531">
		<stop  offset="0" style="stop-color:#FFFFFF"/>
		<stop  offset="1" style="stop-color:#7990DB"/>
	</linearGradient>
	<path class="st17" d="M1019.5,441.6l-1.1-16c0,0,5.3-1.3,7.2,0.5C1027.8,427.8,1019.5,441.6,1019.5,441.6z"/>
	
		<linearGradient id="SVGID_14_" gradientUnits="userSpaceOnUse" x1="1171.4468" y1="288.1356" x2="1170.8917" y2="297.8469" gradientTransform="matrix(0.2846 -0.7546 0.55 0.2074 491.015 1166.6617)">
		<stop  offset="0" style="stop-color:#FFFFFF"/>
		<stop  offset="1" style="stop-color:#7990DB"/>
	</linearGradient>
	<polygon class="st18" points="981.1,376.7 1004.9,318.3 993.2,312.2 974.5,358.8 	"/>
	<linearGradient id="SVGID_15_" gradientUnits="userSpaceOnUse" x1="1010.5844" y1="541.6265" x2="1008.991" y2="550.5502">
		<stop  offset="0" style="stop-color:#FFFFFF"/>
		<stop  offset="1" style="stop-color:#7990DB"/>
	</linearGradient>
	<path class="st19" d="M990,555c20,1,27.9,0.6,27.9,0.6l9-2.4c-1.8-12.7-24.5-17-24.5-17S988.3,554.9,990,555z"/>
	
		<linearGradient id="SVGID_16_" gradientUnits="userSpaceOnUse" x1="937.7472" y1="523.8764" x2="937.2118" y2="533.2409" gradientTransform="matrix(0.3488 0.9372 -0.7183 0.2674 1039.8783 -506.8907)">
		<stop  offset="0" style="stop-color:#FFFFFF"/>
		<stop  offset="1" style="stop-color:#7990DB"/>
	</linearGradient>
	<polygon class="st20" points="966.3,485 993.1,550.4 1002.2,537.6 979.6,476.2 	"/>
	
		<linearGradient id="SVGID_17_" gradientUnits="userSpaceOnUse" x1="953.6348" y1="535.8618" x2="952.804" y2="540.1562" gradientTransform="matrix(1.3865 1.0741 -1.162 1.4999 279.2192 -1350.6711)">
		<stop  offset="0" style="stop-color:#FFFFFF"/>
		<stop  offset="1" style="stop-color:#7990DB"/>
	</linearGradient>
	<path class="st21" d="M965.8,487.7l10.3-15.5c0,0,7.7,1.8,8.3,6.4C985.1,483.2,965.8,487.7,965.8,487.7z"/>
	
		<linearGradient id="SVGID_18_" gradientUnits="userSpaceOnUse" x1="1219.4327" y1="378.3347" x2="1221.1526" y2="385.575" gradientTransform="matrix(1.241473e-02 -0.5892 0.6632 1.397336e-02 726.45 1020.8499)">
		<stop  offset="0" style="stop-color:#FFFFFF"/>
		<stop  offset="1" style="stop-color:#7990DB"/>
	</linearGradient>
	<path class="st22" d="M1001.1,315.5l-6.4-17c0,0-4.2-1.4-4.6,1.8c-0.5,4.2,1.6,16.5,1.6,16.5L1001.1,315.5z"/>
	
		<linearGradient id="SVGID_19_" gradientUnits="userSpaceOnUse" x1="762.5894" y1="524.6847" x2="767.9918" y2="529.0122" gradientTransform="matrix(7.192676e-03 0.8064 -0.5878 5.242274e-03 1254.9897 -262.1229)">
		<stop  offset="0" style="stop-color:#FFFFFF"/>
		<stop  offset="1" style="stop-color:#7990DB"/>
	</linearGradient>
	<polygon class="st23" points="940.8,352.5 956.1,371.3 956.7,354 949.7,353 	"/>
	
		<linearGradient id="SVGID_20_" gradientUnits="userSpaceOnUse" x1="858.0641" y1="266.919" x2="862.3091" y2="278.9893" gradientTransform="matrix(0.7674 0.2478 -0.1806 0.5593 356.4284 -1.2031)">
		<stop  offset="0" style="stop-color:#FFFFFF"/>
		<stop  offset="1" style="stop-color:#7990DB"/>
	</linearGradient>
	<polygon class="st24" points="956.1,371.3 980.6,374 974.6,358.8 955.9,357.8 	"/>
	<linearGradient id="SVGID_21_" gradientUnits="userSpaceOnUse" x1="883.9212" y1="359.0648" x2="873.9212" y2="358.3982">
		<stop  offset="0" style="stop-color:#FFFFFF"/>
		<stop  offset="1" style="stop-color:#7990DB"/>
	</linearGradient>
	<path class="st25" d="M882.5,354.3c0,3.4-1,6.2-4.6,6.7c-3,0.5-6.2-1.6-7.2-4.6c0,0,1.7,8,7.8,7.2
		C881.6,363.1,883.7,358.5,882.5,354.3C882.5,353.3,882.5,354.8,882.5,354.3z"/>
	
		<linearGradient id="SVGID_22_" gradientUnits="userSpaceOnUse" x1="838.0519" y1="653.4543" x2="842.5682" y2="660.4316" gradientTransform="matrix(-7.774056e-02 0.997 -0.7641 -5.952065e-02 1468.4211 -365.5781)">
		<stop  offset="0" style="stop-color:#FFFFFF"/>
		<stop  offset="1" style="stop-color:#7990DB"/>
	</linearGradient>
	<polygon class="st26" points="888.7,429.2 901,456.7 909.9,446.4 897.8,412 	"/>
	
		<linearGradient id="SVGID_23_" gradientUnits="userSpaceOnUse" x1="778.1534" y1="703.8857" x2="781.6788" y2="709.3329" gradientTransform="matrix(-7.774056e-02 0.997 -0.7641 -5.952065e-02 1468.4211 -365.5781)">
		<stop  offset="0" style="stop-color:#FFFFFF"/>
		<stop  offset="1" style="stop-color:#7990DB"/>
	</linearGradient>
	<polygon class="st27" points="856.3,362.3 867.3,389.4 876.8,381.8 861.6,355.4 	"/>
	
		<linearGradient id="SVGID_24_" gradientUnits="userSpaceOnUse" x1="1179.3765" y1="500.8483" x2="1174.6693" y2="510.7382" gradientTransform="matrix(0.5197 -0.6891 0.4836 0.3647 226.0351 1088.6808)">
		<stop  offset="0" style="stop-color:#FFFFFF"/>
		<stop  offset="1" style="stop-color:#7990DB"/>
	</linearGradient>
	<path class="st28" d="M1066.3,478.6c12.3-4.3,29.2-17,29.2-17l5.6-8.7c-7.5-7.5-34.3,14.1-34.3,14.1S1065.3,479.7,1066.3,478.6z"/>
	
		<linearGradient id="SVGID_25_" gradientUnits="userSpaceOnUse" x1="937.5413" y1="289.9479" x2="937.9764" y2="297.4172" gradientTransform="matrix(0.8529 -0.5221 0.4002 0.6538 -42.1225 716.2363)">
		<stop  offset="0" style="stop-color:#FFFFFF"/>
		<stop  offset="1" style="stop-color:#7990DB"/>
	</linearGradient>
	<polygon class="st29" points="859.2,435.7 860.4,434.9 898.7,410 906.4,395.6 841.1,437.6 	"/>
	
		<linearGradient id="SVGID_26_" gradientUnits="userSpaceOnUse" x1="1042.9377" y1="421.1401" x2="1044.1163" y2="428.4031" gradientTransform="matrix(-0.5134 -0.8581 0.6578 -0.3935 1116.8636 1513.1831)">
		<stop  offset="0" style="stop-color:#FFFFFF"/>
		<stop  offset="1" style="stop-color:#7990DB"/>
	</linearGradient>
	<polygon class="st30" points="874.2,462.3 857.7,437.6 842.8,437.4 872.3,469.3 	"/>
	
		<linearGradient id="SVGID_27_" gradientUnits="userSpaceOnUse" x1="847.3787" y1="643.6082" x2="854.692" y2="643.051" gradientTransform="matrix(1 0 0 -1 0 1080)">
		<stop  offset="0" style="stop-color:#FFFFFF"/>
		<stop  offset="1" style="stop-color:#7990DB"/>
	</linearGradient>
	<path class="st31" d="M859.8,435.3c0,0-2.4,1.4-1,4l-16-2.3L859.8,435.3z"/>
	
		<linearGradient id="SVGID_28_" gradientUnits="userSpaceOnUse" x1="876.3047" y1="776.6116" x2="870.6644" y2="738.8766" gradientTransform="matrix(1 0 0 -1 0 1080)">
		<stop  offset="0" style="stop-color:#FFFFFF"/>
		<stop  offset="0.1164" style="stop-color:#DEE4F8"/>
		<stop  offset="0.3006" style="stop-color:#B0BEEE"/>
		<stop  offset="0.4426" style="stop-color:#94A6E8"/>
		<stop  offset="0.5242" style="stop-color:#899DE6"/>
		<stop  offset="0.5944" style="stop-color:#91A3E8"/>
		<stop  offset="0.7013" style="stop-color:#A6B5EC"/>
		<stop  offset="0.8315" style="stop-color:#C8D1F3"/>
		<stop  offset="0.9788" style="stop-color:#F8F9FD"/>
		<stop  offset="1" style="stop-color:#FFFFFF"/>
	</linearGradient>
	<path class="st32" d="M861.6,355.4c0,0.2,5,6.1,5,6.1c2.6,1.3,6.6-9.7,5.2-15.6c-4-16.7,1-28.3,7.8-35.5c4.2-4.4,9.1-7.2,12.9-8.6
		c1.7-0.6-5.9-6.6-5.9-6.6l0,0C867.9,298.5,846.2,318.4,861.6,355.4z"/>
	
		<linearGradient id="SVGID_29_" gradientUnits="userSpaceOnUse" x1="904.9589" y1="737.4869" x2="902.1227" y2="762.1782" gradientTransform="matrix(1 0 0 -1 0 1080)">
		<stop  offset="0" style="stop-color:#FFFFFF;stop-opacity:0"/>
		<stop  offset="1" style="stop-color:#7990DB"/>
	</linearGradient>
	<path class="st33" d="M901.4,305.8c7.9-1.7,31.1,2.3,24.5,37.7c-2.2,11.9-27.9,14.3-27.9,14.3s-6.7-18.1-13.5-22.8
		C871,325.6,888.1,308.7,901.4,305.8z"/>
	<circle class="st3" cx="909.8" cy="316.4" r="5.6"/>
	<circle class="st3" cx="906.3" cy="330.2" r="3"/>
</g>
<g>
	
		<linearGradient id="SVGID_30_" gradientUnits="userSpaceOnUse" x1="904.1671" y1="488.0899" x2="904.1671" y2="316.983" gradientTransform="matrix(1 0 0 -1 0 1080)">
		<stop  offset="0" style="stop-color:#7990DB"/>
		<stop  offset="1" style="stop-color:#0A1975"/>
	</linearGradient>
	<path class="st34" d="M887,716.4h9.3l0.3-0.5c0.4-0.8,0.9-1.6,1.6-2.3c0.7-0.7,1.5-1.3,2.5-1.8c1.1-0.5,2.4-0.8,3.8-0.8
		c2.4,0,4.5,0.9,6.1,2.6c1.5,1.7,2.3,3.8,2.3,6.1v34.6c0,2.7-0.8,4.9-2.2,6.5c-1.5,1.7-3.5,2.5-6.1,2.5s-4.7-0.8-6.4-2.5
		c-1.7-1.7-2.5-4-2.5-6.8v-10.3h-10.3v10.9c0,3,0.5,5.6,1.5,8c1,2.3,2.4,4.3,4.1,6c1.7,1.6,3.7,2.9,6,3.8c2.3,0.8,4.7,1.3,7.2,1.3
		c2.5,0,4.9-0.4,7.2-1.3c2.3-0.8,4.3-2.1,6-3.8c1.7-1.6,3.1-3.6,4.1-6c1-2.3,1.5-5,1.5-8v-36.9c0-5-1.3-8.9-3.9-11.5
		c-2.6-2.6-6-3.8-10.2-3.8c-2.2,0-4.2,0.4-6,1.2c-1.8,0.8-3.2,1.7-4.3,2.8l-3.1,3.1v-44.2H923v-9.4h-36.1L887,716.4L887,716.4z"/>
	
		<linearGradient id="SVGID_31_" gradientUnits="userSpaceOnUse" x1="960.0375" y1="488.0899" x2="960.0375" y2="316.983" gradientTransform="matrix(1 0 0 -1 0 1080)">
		<stop  offset="0" style="stop-color:#7990DB"/>
		<stop  offset="1" style="stop-color:#0A1975"/>
	</linearGradient>
	<path class="st35" d="M973.2,660.2c-1.7-1.6-3.7-2.9-6-3.8c-2.3-0.8-4.7-1.3-7.2-1.3c-2.5,0-4.9,0.4-7.2,1.3
		c-2.3,0.8-4.3,2.1-6,3.8c-1.7,1.7-3.1,3.6-4.1,6c-1,2.3-1.5,5-1.5,8v80.5c0,3,0.5,5.6,1.5,8c1,2.3,2.4,4.3,4.1,6
		c1.7,1.6,3.7,2.9,6,3.8s4.7,1.3,7.2,1.3c2.5,0,4.9-0.4,7.2-1.3c2.3-0.8,4.3-2.1,6-3.8c1.7-1.6,3.1-3.6,4.1-6c1-2.3,1.5-5,1.5-8
		v-80.5c0-3-0.5-5.6-1.5-8C976.3,663.9,974.9,661.9,973.2,660.2z M968.6,754.7c0,2.4-0.8,4.5-2.4,6.2c-1.6,1.7-3.7,2.5-6.2,2.5
		c-2.5,0-4.5-0.8-6.2-2.5c-1.6-1.7-2.4-3.8-2.4-6.2v-80.5c0-2.4,0.8-4.5,2.4-6.2c1.6-1.7,3.7-2.5,6.2-2.5c2.5,0,4.5,0.8,6.2,2.5
		c1.6,1.7,2.4,3.8,2.4,6.2V754.7z"/>
	
		<linearGradient id="SVGID_32_" gradientUnits="userSpaceOnUse" x1="1015.9125" y1="488.0899" x2="1015.9125" y2="316.983" gradientTransform="matrix(1 0 0 -1 0 1080)">
		<stop  offset="0" style="stop-color:#7990DB"/>
		<stop  offset="1" style="stop-color:#0A1975"/>
	</linearGradient>
	<path class="st36" d="M1033.2,666.2c-1-2.3-2.4-4.3-4.1-6c-1.7-1.6-3.7-2.9-6-3.8c-2.3-0.8-4.7-1.3-7.2-1.3c-2.5,0-4.9,0.4-7.2,1.3
		c-2.3,0.8-4.3,2.1-6,3.8s-3.1,3.6-4.1,6c-1,2.3-1.5,5-1.5,8v80.5c0,3,0.5,5.6,1.5,8c1,2.3,2.4,4.3,4.1,6c1.7,1.6,3.7,2.9,6,3.8
		c2.3,0.8,4.7,1.3,7.2,1.3c2.5,0,4.9-0.4,7.2-1.3c2.3-0.8,4.3-2.1,6-3.8c1.7-1.6,3.1-3.6,4.1-6c1-2.3,1.5-5,1.5-8v-80.5
		C1034.8,671.2,1034.3,668.5,1033.2,666.2z M1024.5,754.7c0,2.4-0.8,4.5-2.4,6.2c-1.6,1.7-3.7,2.5-6.2,2.5c-2.5,0-4.5-0.8-6.2-2.5
		c-1.6-1.7-2.4-3.8-2.4-6.2v-80.5c0-2.4,0.8-4.5,2.4-6.2c1.6-1.7,3.7-2.5,6.2-2.5c2.5,0,4.5,0.8,6.2,2.5c1.6,1.7,2.4,3.8,2.4,6.2
		V754.7z"/>
</g>
<g class="st37">
	<path class="st4" d="M784.9,762.9c0-0.4,0.3-0.8,0.8-0.8s0.8,0.3,0.8,0.8v20c0,0.4-0.3,0.8-0.8,0.8s-0.8-0.3-0.8-0.8V762.9z"/>
	<path class="st4" d="M795.7,768.8c0-0.4,0.3-0.8,0.8-0.8c0.4,0,0.8,0.3,0.8,0.8v2.3c1-1.9,2.8-3.3,5.6-3.3c4,0,6.2,2.7,6.2,6.4v8.8
		c0,0.4-0.3,0.8-0.8,0.8s-0.8-0.3-0.8-0.8v-8.6c0-3.2-1.8-5.3-5-5.3c-3,0-5.4,2.4-5.4,5.6v8.3c0,0.4-0.3,0.8-0.8,0.8
		s-0.8-0.3-0.8-0.8L795.7,768.8L795.7,768.8z"/>
	<path class="st4" d="M818.1,779.6v-10.2h-1.7c-0.3,0-0.7-0.3-0.7-0.7c0-0.3,0.3-0.7,0.7-0.7h1.7v-4.3c0-0.4,0.3-0.8,0.8-0.8
		s0.8,0.3,0.8,0.8v4.3h4.9c0.3,0,0.7,0.3,0.7,0.7c0,0.3-0.3,0.7-0.7,0.7h-4.9v10c0,2.2,1.3,3,3.1,3c1.1,0,1.5-0.3,1.8-0.3
		c0.3,0,0.7,0.3,0.7,0.7s-0.2,0.5-0.5,0.7c-0.6,0.3-1.3,0.4-2.2,0.4C820,783.9,818.1,782.6,818.1,779.6z"/>
	<path class="st4" d="M838.4,784c-4.1,0-7.7-3.3-7.7-8.1v-0.1c0-4.5,3.2-8.1,7.4-8.1c4.4,0,7.2,3.6,7.2,8.1c0,0.3-0.3,0.7-0.8,0.7
		h-12.2c0.3,3.9,3,6.1,6.1,6.1c2.2,0,3.8-0.9,5-2.1c0.1-0.1,0.3-0.3,0.5-0.3c0.4,0,0.8,0.3,0.8,0.7c0,0.2-0.1,0.3-0.3,0.5
		C843,783,841.3,784,838.4,784z M843.7,775.1c-0.3-3.1-2-6.1-5.6-6.1c-3.1,0-5.5,2.6-5.7,6.1H843.7z"/>
	<path class="st4" d="M852.6,768.8c0-0.4,0.3-0.8,0.8-0.8s0.8,0.3,0.8,0.8v3.8c1.3-3,4-4.6,6.2-4.6c0.4,0,0.8,0.3,0.8,0.8
		c0,0.4-0.3,0.8-0.8,0.8c-3.3,0.3-6.2,2.8-6.2,7.7v5.7c0,0.4-0.3,0.8-0.8,0.8s-0.8-0.3-0.8-0.8V768.8z"/>
	<path class="st4" d="M867.8,768.8c0-0.4,0.3-0.8,0.8-0.8s0.8,0.3,0.8,0.8v2.3c1-1.9,2.8-3.3,5.6-3.3c4,0,6.2,2.7,6.2,6.4v8.8
		c0,0.4-0.3,0.8-0.8,0.8c-0.4,0-0.8-0.3-0.8-0.8v-8.6c0-3.2-1.8-5.3-5-5.3c-3,0-5.4,2.4-5.4,5.6v8.3c0,0.4-0.3,0.8-0.8,0.8
		c-0.4,0-0.8-0.3-0.8-0.8L867.8,768.8L867.8,768.8z"/>
	<path class="st4" d="M888.1,779.1L888.1,779.1c0-3.3,2.8-5.1,6.8-5.1c2.2,0,3.6,0.3,5.1,0.7V774c0-3.1-1.9-4.8-5.1-4.8
		c-1.7,0-3.1,0.4-4.5,1c-0.1,0.1-0.3,0.1-0.3,0.1c-0.3,0-0.7-0.3-0.7-0.7c0-0.3,0.3-0.6,0.4-0.7c1.6-0.7,3.1-1.2,5.1-1.2
		c2.1,0,3.8,0.6,4.9,1.7c1,1,1.6,2.4,1.6,4.4v9.1c0,0.4-0.3,0.8-0.8,0.8s-0.8-0.3-0.8-0.8V781c-1.1,1.5-2.9,2.9-6,2.9
		C891.2,784,888.1,782.4,888.1,779.1z M900.1,777.8v-1.8c-1.3-0.3-3-0.7-5.3-0.7c-3.3,0-5.1,1.4-5.1,3.6v0.1c0,2.3,2.1,3.5,4.5,3.5
		C897.3,782.6,900.1,780.6,900.1,777.8z"/>
	<path class="st4" d="M910,762c0-0.4,0.3-0.8,0.8-0.8s0.8,0.3,0.8,0.8v21c0,0.4-0.3,0.8-0.8,0.8s-0.8-0.3-0.8-0.8V762z"/>
	<path class="st4" d="M931.4,782c-0.1-0.1-0.3-0.3-0.3-0.6c0-0.4,0.3-0.8,0.8-0.8c0.2,0,0.3,0.1,0.5,0.2c1.6,1.2,3.3,1.8,5.2,1.8
		c2.1,0,3.8-1.2,3.8-2.9v-0.1c0-1.9-1.9-2.5-4.1-3.1c-2.5-0.8-5.3-1.5-5.3-4.3V772c0-2.5,2.1-4.3,5.1-4.3c1.7,0,3.5,0.6,5,1.4
		c0.2,0.1,0.4,0.3,0.4,0.7c0,0.4-0.3,0.8-0.8,0.8c-0.2,0-0.3-0.1-0.4-0.1c-1.3-0.8-2.9-1.3-4.3-1.3c-2.1,0-3.5,1.2-3.5,2.7v0.1
		c0,1.8,2.1,2.4,4.3,3c2.5,0.7,5.1,1.6,5.1,4.4v0.1c0,2.8-2.4,4.5-5.4,4.5C935.3,783.9,932.9,783.1,931.4,782z"/>
	<path class="st4" d="M957,784c-4.1,0-7.7-3.3-7.7-8.1v-0.1c0-4.5,3.2-8.1,7.4-8.1c4.4,0,7.2,3.6,7.2,8.1c0,0.3-0.3,0.7-0.8,0.7
		h-12.2c0.3,3.9,3,6.1,6.1,6.1c2.2,0,3.8-0.9,5-2.1c0.1-0.1,0.3-0.3,0.5-0.3c0.4,0,0.8,0.3,0.8,0.7c0,0.2-0.1,0.3-0.3,0.5
		C961.5,783,959.7,784,957,784z M962.3,775.1c-0.3-3.1-2-6.1-5.6-6.1c-3.1,0-5.5,2.6-5.7,6.1H962.3z"/>
	<path class="st4" d="M971.2,768.8c0-0.4,0.3-0.8,0.8-0.8s0.8,0.3,0.8,0.8v3.8c1.3-3,4-4.6,6.2-4.6c0.4,0,0.8,0.3,0.8,0.8
		c0,0.4-0.3,0.8-0.8,0.8c-3.3,0.3-6.2,2.8-6.2,7.7v5.7c0,0.4-0.3,0.8-0.8,0.8s-0.8-0.3-0.8-0.8V768.8z"/>
	<path class="st4" d="M992.3,783.8L992.3,783.8c-0.5,0-0.8-0.3-0.9-0.7l-6.2-14.1c-0.1-0.2-0.1-0.3-0.1-0.4c0-0.4,0.3-0.8,0.8-0.8
		s0.7,0.3,0.8,0.6l5.6,13.4l5.7-13.5c0.1-0.3,0.3-0.6,0.8-0.6s0.8,0.3,0.8,0.8c0,0.2,0,0.3-0.1,0.4l-6.3,14.1
		C993,783.6,992.7,783.8,992.3,783.8z"/>
	<path class="st4" d="M1012.6,784c-4.1,0-7.7-3.3-7.7-8.1v-0.1c0-4.5,3.2-8.1,7.4-8.1c4.4,0,7.2,3.6,7.2,8.1c0,0.3-0.3,0.7-0.8,0.7
		h-12.2c0.3,3.9,3,6.1,6.1,6.1c2.2,0,3.8-0.9,5-2.1c0.1-0.1,0.3-0.3,0.5-0.3c0.4,0,0.8,0.3,0.8,0.7c0,0.2-0.1,0.3-0.3,0.5
		C1017.1,783,1015.4,784,1012.6,784z M1017.8,775.1c-0.3-3.1-2-6.1-5.6-6.1c-3.1,0-5.5,2.6-5.7,6.1H1017.8z"/>
	<path class="st4" d="M1026.7,768.8c0-0.4,0.3-0.8,0.8-0.8c0.4,0,0.8,0.3,0.8,0.8v3.8c1.3-3,4-4.6,6.2-4.6c0.4,0,0.8,0.3,0.8,0.8
		c0,0.4-0.3,0.8-0.8,0.8c-3.3,0.3-6.2,2.8-6.2,7.7v5.7c0,0.4-0.3,0.8-0.8,0.8c-0.4,0-0.8-0.3-0.8-0.8V768.8z"/>
	<path class="st4" d="M1060.5,784c-4.1,0-7.7-3.3-7.7-8.1v-0.1c0-4.5,3.2-8.1,7.4-8.1c4.4,0,7.2,3.6,7.2,8.1c0,0.3-0.3,0.7-0.8,0.7
		h-12.2c0.3,3.9,3,6.1,6.1,6.1c2.2,0,3.8-0.9,5-2.1c0.1-0.1,0.3-0.3,0.5-0.3c0.4,0,0.8,0.3,0.8,0.7c0,0.2-0.1,0.3-0.3,0.5
		C1065,783,1063.3,784,1060.5,784z M1065.8,775.1c-0.3-3.1-2-6.1-5.6-6.1c-3.1,0-5.5,2.6-5.7,6.1H1065.8z"/>
	<path class="st4" d="M1074.7,768.8c0-0.4,0.3-0.8,0.8-0.8c0.4,0,0.8,0.3,0.8,0.8v3.8c1.3-3,4-4.6,6.2-4.6c0.4,0,0.8,0.3,0.8,0.8
		c0,0.4-0.3,0.8-0.8,0.8c-3.3,0.3-6.2,2.8-6.2,7.7v5.7c0,0.4-0.3,0.8-0.8,0.8c-0.4,0-0.8-0.3-0.8-0.8V768.8z"/>
	<path class="st4" d="M1089.7,768.8c0-0.4,0.3-0.8,0.8-0.8c0.4,0,0.8,0.3,0.8,0.8v3.8c1.3-3,4-4.6,6.2-4.6c0.4,0,0.8,0.3,0.8,0.8
		c0,0.4-0.3,0.8-0.8,0.8c-3.3,0.3-6.2,2.8-6.2,7.7v5.7c0,0.4-0.3,0.8-0.8,0.8c-0.4,0-0.8-0.3-0.8-0.8V768.8z"/>
	<path class="st4" d="M1103,775.9L1103,775.9c0-4.5,3.4-8.2,8-8.2s8,3.7,8,8.1v0.1c0,4.4-3.4,8.2-8,8.2
		C1106.4,784,1103,780.3,1103,775.9z M1117.4,775.9L1117.4,775.9c0-3.8-2.8-6.8-6.4-6.8c-3.7,0-6.3,3-6.3,6.6v0.1
		c0,3.8,2.8,6.7,6.4,6.7C1114.7,782.6,1117.4,779.6,1117.4,775.9z"/>
	<path class="st4" d="M1126.6,768.8c0-0.4,0.3-0.8,0.8-0.8s0.8,0.3,0.8,0.8v3.8c1.3-3,4-4.6,6.2-4.6c0.4,0,0.8,0.3,0.8,0.8
		c0,0.4-0.3,0.8-0.8,0.8c-3.3,0.3-6.2,2.8-6.2,7.7v5.7c0,0.4-0.3,0.8-0.8,0.8s-0.8-0.3-0.8-0.8V768.8z"/>
</g>
</svg>
