<?xml version="1.0" encoding="utf-8"?>
<!-- Generator: Adobe Illustrator 19.2.0, SVG Export Plug-In . SVG Version: 6.00 Build 0)  -->
<svg version="1.1" id="Layer_1" xmlns="http://www.w3.org/2000/svg" xmlns:xlink="http://www.w3.org/1999/xlink" x="0px" y="0px"
	 viewBox="0 0 181.5 171.8" style="enable-background:new 0 0 181.5 171.8;" xml:space="preserve">
<style type="text/css">
	.st0{fill:#FFFFFF;}
</style>
<path class="st0" d="M105.5,22.9c23,3.7,39.7,23.3,39.7,46.6c0,6.1-1.1,12-3.4,17.6l0.5,0.2l1.9,0.3c2.3-5.8,3.4-11.9,3.4-18.1
	c0-24.5-17.4-45-41.5-48.9L105.5,22.9z"/>
<g>
	<path class="st0" d="M18.2,156.4H3.8c-1.8,0-3.8,0.9-3.8,2.7v10c0,1.8,2,2.7,3.8,2.7h17.2v-2.1H8.4c-0.9,0-1.4-0.5-1.4-1.4v-3.2
		l11.2,0c1.8,0,3.8-0.9,3.8-2.7v-3.3C22,157.3,20,156.4,18.2,156.4z M15.1,161.6c0,0.9-0.5,1.4-1.4,1.4H7v-3c0-0.9,0.5-1.4,1.4-1.4
		h5.3c0.9,0,1.4,0.5,1.4,1.4V161.6z"/>
	<path class="st0" d="M56.4,156.4H46.3c-1.4,0-2.9,0.5-3.5,1.6c-0.6-1.1-2.1-1.6-3.5-1.6H29.1c-1.8,0-3.8,0.9-3.8,2.7v12.7h7v-11.9
		c0-0.9,0.5-1.4,1.4-1.4h4.2c0.9,0,1.4,0.5,1.4,1.4v11.9h6.8v-11.9c0-0.9,0.5-1.4,1.4-1.4h4.2c0.9,0,1.4,0.5,1.4,1.4v11.9h7v-12.7
		C60.2,157.3,58.2,156.4,56.4,156.4z"/>
	<path class="st0" d="M70.5,171.8v-15.4h-3.2c-1.8,0-3.8,0.9-3.8,2.7v12.7H70.5z"/>
	<path class="st0" d="M91.9,163.1l-9.7,0c-0.9,0-1.4-0.5-1.4-1.4v-1.8c0-0.9,0.5-1.4,1.4-1.4h12.7v-2.1H77.6c-1.8,0-3.8,0.9-3.8,2.7
		v3.5c0,1.8,2,2.7,3.8,2.7l9.7,0c0.9,0,1.4,0.5,1.4,1.4v1.7c0,0.9-0.5,1.4-1.4,1.4H73.9v2.1h18c1.8,0,3.8-0.9,3.8-2.7v-3.4
		C95.7,164,93.7,163.1,91.9,163.1z"/>
	<path class="st0" d="M117.1,163.1l-9.7,0c-0.9,0-1.4-0.5-1.4-1.4v-1.8c0-0.9,0.5-1.4,1.4-1.4H120v-2.1h-17.2
		c-1.8,0-3.8,0.9-3.8,2.7v3.5c0,1.8,2,2.7,3.8,2.7l9.7,0c0.9,0,1.4,0.5,1.4,1.4v1.7c0,0.9-0.5,1.4-1.4,1.4H99v2.1h18
		c1.8,0,3.8-0.9,3.8-2.7v-3.4C120.9,164,118.9,163.1,117.1,163.1z"/>
	<path class="st0" d="M131.2,171.8v-15.4H128c-1.8,0-3.8,0.9-3.8,2.7v12.7H131.2z"/>
	<path class="st0" d="M152.8,156.4h-14.4c-1.8,0-3.8,0.9-3.8,2.7v10c0,1.8,2,2.7,3.8,2.7h14.4c1.8,0,3.8-0.9,3.8-2.7v-10
		C156.5,157.3,154.5,156.4,152.8,156.4z M149.5,168.3c0,0.9-0.5,1.4-1.4,1.4h-5.2c-0.9,0-1.4-0.5-1.4-1.4v-8.4
		c0-0.9,0.5-1.4,1.4-1.4h5.2c0.9,0,1.4,0.5,1.4,1.4V168.3z"/>
	<path class="st0" d="M166.5,171.8v-11.9c0-0.9,0.5-1.4,1.4-1.4h5.2c0.9,0,1.4,0.5,1.4,1.4v11.9h7v-12.7c0-1.8-2-2.7-3.8-2.7h-14.4
		c-1.8,0-3.8,0.9-3.8,2.7v12.7H166.5z"/>
</g>
<path class="st0" d="M171.1,11.9c-6.6,0-11.9-5.3-11.9-11.9c0,6.6-5.3,11.9-11.9,11.9c6.6,0,11.9,5.3,11.9,11.9
	C159.2,17.2,164.5,11.9,171.1,11.9z"/>
<g>
	<path class="st0" d="M92.4,75.7l3.1-3.1c-3.9-3.9-10.1-3.9-14,0c-3.9,3.9-3.9,10.1,0,14l3.1-3.1c-2.2-2.2-2.2-5.7,0-7.8
		C86.7,73.6,90.2,73.6,92.4,75.7z"/>
	<path class="st0" d="M101,88.8c-2.9,3.6-7.3,6-12.3,6c-6.7,0-12.4-4.2-14.6-10.1l-21.9-3.4l21-0.6c-0.1-0.5-0.1-1.1-0.1-1.6
		c0-8.6,7-15.6,15.6-15.6c0.2,0,0.4,0,0.5,0l11.9-51.3c-1-0.1-2.1-0.1-3.2-0.1c-31.6,0-57.3,25.6-57.3,57.3
		c0,15.1,5.9,28.9,15.4,39.1l-16.4,25.8c23.8-17.3,60.3-13.6,60.3-13.6l-28.5-10.4l62.6,3.4c5.9-4.9,10.9-10.9,14.4-17.7L101,88.8z
		 M118.3,103.4c-1-0.1-1.6-0.9-1.6-1.9c0.1-1,0.9-1.6,1.9-1.6c1,0.1,1.6,0.9,1.6,1.9S119.3,103.5,118.3,103.4z M126.3,104.1
		c-1-0.1-1.6-0.9-1.6-1.9c0.1-1,0.9-1.6,1.9-1.6c1,0.1,1.6,0.9,1.6,1.9C128.1,103.5,127.2,104.2,126.3,104.1z M134.3,104.9
		c-1-0.1-1.6-0.9-1.6-1.9c0.1-1,0.9-1.6,1.9-1.6c1,0.1,1.6,0.9,1.6,1.9C136.1,104.3,135.2,105,134.3,104.9z"/>
</g>
</svg>
