<?xml version="1.0" encoding="utf-8"?>
<!-- Generator: Adobe Illustrator 19.2.0, SVG Export Plug-In . SVG Version: 6.00 Build 0)  -->
<svg version="1.1" id="Layer_1" xmlns="http://www.w3.org/2000/svg" xmlns:xlink="http://www.w3.org/1999/xlink" x="0px" y="0px"
	 viewBox="0 0 16 16" style="enable-background:new 0 0 16 16;" xml:space="preserve">
<style type="text/css">
	.st0{fill:#8585A5;}
</style>
<path class="st0" d="M16,9V7h-3.1c-0.1-0.6-0.4-1.2-0.7-1.8L14.4,3L13,1.6l-2.2,2.2C10.2,3.5,9.6,3.2,9,3.1V0H7v3.1
	C6.4,3.2,5.8,3.5,5.2,3.8L3.1,1.6L1.7,3l2.2,2.2C3.5,5.8,3.2,6.4,3.1,7H0v2h3.1c0.1,0.7,0.4,1.3,0.7,1.8L1.7,13l1.4,1.4l2.2-2.2
	c0.5,0.4,1.1,0.6,1.8,0.7V16h2v-3.1c0.6-0.1,1.2-0.4,1.8-0.7l2.2,2.2l1.4-1.4l-2.2-2.2c0.4-0.5,0.6-1.1,0.7-1.8H16z M8,10
	c-1.1,0-2-0.9-2-2s0.9-2,2-2s2,0.9,2,2S9.1,10,8,10z"/>
</svg>
